<svg width="159" height="35" viewBox="0 0 159 35" fill="none" xmlns="http://www.w3.org/2000/svg">
<g clip-path="url(#clip0_100_137)">
<path fill-rule="evenodd" clip-rule="evenodd" d="M50.6377 2.37538C50.6377 1.19099 51.6083 0.230835 52.8058 0.230835H56.5827C57.4349 0.230835 58.2608 0.522972 58.9198 1.05752L60.0687 1.98949L60.0974 2.01542C60.1239 2.00657 60.1505 1.99792 60.1771 1.98949C62.2499 1.33277 64.7648 1.20787 67.3317 1.20787C69.8985 1.20787 72.4134 1.33277 74.4863 1.98949C74.5129 1.99792 74.5394 2.00657 74.5659 2.01542L74.5946 1.98949L75.7435 1.05752C76.4025 0.522972 77.2284 0.230835 78.0806 0.230835H81.8576C83.055 0.230835 84.0256 1.19099 84.0256 2.37538V3.70111C84.0256 4.72683 83.5888 5.70511 82.8223 6.39594L81.8954 7.23134C81.4429 7.63917 80.8998 7.93598 80.3099 8.0978L80.0907 8.15795C80.9495 10.185 81.424 12.3518 81.424 14.1046C81.424 21.1557 77.0135 24.2009 73.1273 26.8841C70.0669 28.9972 67.3317 30.8856 67.3317 34.3292C67.3317 30.8856 64.5965 28.9972 61.536 26.8841C57.6499 24.2009 53.2393 21.1557 53.2393 14.1046C53.2393 12.3518 53.7138 10.185 54.5726 8.15795L54.3534 8.0978C53.7635 7.93598 53.2204 7.63917 52.7679 7.23134L51.841 6.39594C51.0745 5.70511 50.6377 4.72683 50.6377 3.70111V2.37538ZM70.1501 19.8691C70.1501 20.206 70.0016 20.529 69.7374 20.7673C69.4731 21.0055 69.1147 21.1393 68.7409 21.1393C68.4182 21.1393 68.1069 21.0395 67.8578 20.8589C68.2818 21.9816 69.3669 23.0454 71.0173 21.3347C72.4744 19.7451 70.9526 16.3925 69.47 14.403C68.9758 13.7399 68.1645 13.4207 67.3317 13.4207C66.4988 13.4207 65.6875 13.7399 65.1933 14.403C63.7107 16.3925 62.1889 19.7451 63.646 21.3347C65.2964 23.0454 66.3815 21.9816 66.8055 20.8589C66.5564 21.0395 66.2451 21.1393 65.9225 21.1393C65.5487 21.1393 65.1902 21.0055 64.9259 20.7673C64.6617 20.529 64.5132 20.206 64.5132 19.8691H70.1501ZM61.935 9.94473H58.0091L61.1031 12.3953C61.7839 12.9345 62.7791 12.7621 63.2004 12.032C63.7323 11.1101 63.0258 9.94473 61.935 9.94473ZM72.7283 9.94473H76.6542L73.5602 12.3953C72.8794 12.9345 71.8842 12.7621 71.4629 12.032C70.931 11.1101 71.6375 9.94473 72.7283 9.94473Z" fill="black"/>
<path d="M88.7031 24.3838H92.1812V11.2644H88.7031V24.3838ZM88.7031 9.21852H92.1812V6.09851H88.7031V9.21852Z" fill="black"/>
<path d="M94.4221 28.6801H97.9001V22.9005H97.9513C98.6929 24.0257 99.8949 24.7674 101.736 24.7674C105.112 24.7674 107.414 22.0821 107.414 17.8369C107.414 13.7451 105.189 10.9064 101.711 10.9064C99.9205 10.9064 98.6929 11.7503 97.849 12.9011H97.7723V11.2644H94.4221V28.6801ZM100.995 21.8775C98.9231 21.8775 97.8234 20.3175 97.8234 17.9392C97.8234 15.5864 98.6929 13.7195 100.867 13.7195C103.015 13.7195 103.884 15.4585 103.884 17.9392C103.884 20.4198 102.759 21.8775 100.995 21.8775Z" fill="black"/>
<path d="M114.352 24.7676C117.625 24.7676 119.876 23.182 119.876 20.5479C119.876 17.4791 117.446 16.8653 115.247 16.405C113.38 16.0214 111.641 15.9191 111.641 14.7938C111.641 13.8476 112.536 13.3361 113.891 13.3361C115.375 13.3361 116.27 13.8476 116.423 15.2542H119.569C119.313 12.6201 117.395 10.9066 113.942 10.9066C110.95 10.9066 108.597 12.262 108.597 15.1007C108.597 17.965 110.899 18.6043 113.252 19.0646C115.042 19.4227 116.704 19.5506 116.704 20.8037C116.704 21.7243 115.835 22.3125 114.3 22.3125C112.74 22.3125 111.666 21.6476 111.436 20.1387H108.214C108.418 22.9263 110.541 24.7676 114.352 24.7676Z" fill="black"/>
<path d="M133.081 24.3837V11.2644H129.603V18.8342C129.603 20.5733 128.606 21.8008 126.969 21.8008C125.486 21.8008 124.795 20.9569 124.795 19.4224V11.2644H121.343V20.0106C121.343 22.8749 122.979 24.7418 125.895 24.7418C127.736 24.7418 128.759 24.0513 129.654 22.8493H129.731V24.3837H133.081Z" fill="black"/>
<path d="M135.331 24.3837H138.809V16.7628C138.809 15.0237 139.755 13.8985 141.162 13.8985C142.44 13.8985 143.182 14.6657 143.182 16.149V24.3837H146.66V16.7628C146.66 15.0237 147.555 13.8985 149.013 13.8985C150.291 13.8985 151.033 14.6657 151.033 16.149V24.3837H154.511V15.5608C154.511 12.6965 152.951 10.9064 150.189 10.9064C148.527 10.9064 147.146 11.7759 146.251 13.208H146.2C145.56 11.827 144.23 10.9064 142.568 10.9064C140.752 10.9064 139.474 11.827 138.758 13.029H138.681V11.2644H135.331V24.3837Z" fill="black"/>
<path d="M0.894531 24.3836H4.37256V6.09839H0.894531V24.3836Z" fill="black"/>
<path d="M12.8773 24.7676C16.9435 24.7676 19.731 21.7499 19.731 17.8371C19.731 13.9243 16.9435 10.9066 12.8773 10.9066C8.81098 10.9066 6.02344 13.9243 6.02344 17.8371C6.02344 21.7499 8.81098 24.7676 12.8773 24.7676ZM12.8773 22.1079C10.7291 22.1079 9.55266 20.3945 9.55266 17.8371C9.55266 15.2797 10.7291 13.5407 12.8773 13.5407C14.9999 13.5407 16.2018 15.2797 16.2018 17.8371C16.2018 20.3945 14.9999 22.1079 12.8773 22.1079Z" fill="black"/>
<path d="M27.127 28.8592C29.0706 28.8592 30.7585 28.3988 31.8582 27.3759C32.83 26.4808 33.4182 25.2277 33.4182 23.3864V11.2644H30.068V12.6454H30.0169C29.2241 11.5457 28.0221 10.9064 26.3854 10.9064C23.0608 10.9064 20.708 13.4126 20.708 17.3254C20.708 21.2893 23.5723 23.591 26.4877 23.591C28.15 23.591 29.1474 22.926 29.9146 22.0565H29.9913V23.4887C29.9913 25.2788 29.0451 26.2251 27.0759 26.2251C25.4647 26.2251 24.7231 25.5857 24.4418 24.7674H20.9893C21.3474 27.3247 23.5467 28.8592 27.127 28.8592ZM27.0759 20.8034C25.2857 20.8034 24.1093 19.4992 24.1093 17.2742C24.1093 15.0749 25.2857 13.6939 27.0503 13.6939C29.1474 13.6939 30.1703 15.3306 30.1703 17.2487C30.1703 19.1923 29.2752 20.8034 27.0759 20.8034Z" fill="black"/>
<path d="M41.8721 24.7674C45.9383 24.7674 48.7259 21.7497 48.7259 17.8369C48.7259 13.9241 45.9383 10.9064 41.8721 10.9064C37.8058 10.9064 35.0183 13.9241 35.0183 17.8369C35.0183 21.7497 37.8058 24.7674 41.8721 24.7674ZM41.8721 22.1077C39.7239 22.1077 38.5475 20.3942 38.5475 17.8369C38.5475 15.2795 39.7239 13.5405 41.8721 13.5405C43.9947 13.5405 45.1967 15.2795 45.1967 17.8369C45.1967 20.3942 43.9947 22.1077 41.8721 22.1077Z" fill="black"/>
<path d="M154.354 8.40017C154.354 7.81166 154.831 7.33459 155.42 7.33459H157.551C158.139 7.33459 158.617 7.81166 158.617 8.40017C158.617 8.98863 158.139 9.46575 157.551 9.46575H155.42C154.831 9.46575 154.354 8.98863 154.354 8.40017Z" fill="#355030"/>
</g>
<defs>
<clipPath id="clip0_100_137">
<rect width="158.557" height="34.9508" fill="white" transform="translate(0.311523 0.0491943)"/>
</clipPath>
</defs>
</svg>
