<svg width="174" height="35" viewBox="0 0 174 35" fill="none" xmlns="http://www.w3.org/2000/svg">
<g clip-path="url(#clip0_100_122)">
<path fill-rule="evenodd" clip-rule="evenodd" d="M22.6541 10.8629C21.2522 9.92617 19.6041 9.4262 17.9181 9.4262V0.901611C21.2901 0.901611 24.5864 1.90153 27.3901 3.77492C30.1938 5.6483 32.379 8.31102 33.6695 11.4263C34.9598 14.5416 35.2975 17.9697 34.6397 21.2769C33.9818 24.5841 32.3581 27.622 29.9736 30.0064C27.5893 32.3908 24.5514 34.0145 21.2442 34.6724C17.937 35.3302 14.5089 34.9926 11.3936 33.7022C8.2783 32.4117 5.61558 30.2265 3.7422 27.4228C1.86881 24.6191 0.868896 21.3228 0.868896 17.9508H9.39349C9.39349 19.6368 9.89345 21.2849 10.8301 22.6868C11.7668 24.0887 13.0982 25.1813 14.6559 25.8265C16.2135 26.4717 17.9275 26.6405 19.5811 26.3115C21.2347 25.9827 22.7537 25.1708 23.9459 23.9786C25.1381 22.7864 25.9499 21.2675 26.2788 19.6139C26.6078 17.9603 26.439 16.2462 25.7938 14.6886C25.1485 13.1309 24.056 11.7995 22.6541 10.8629Z" fill="black"/>
<path fill-rule="evenodd" clip-rule="evenodd" d="M9.39348 0.901616C9.39348 2.02108 9.17299 3.12958 8.74459 4.16384C8.31619 5.19808 7.68827 6.13783 6.89669 6.92941C6.10511 7.721 5.16537 8.34891 4.13112 8.77731C3.09686 9.20571 1.98836 9.4262 0.868897 9.4262L0.868896 17.9508C3.10782 17.9508 5.32483 17.5098 7.39334 16.653C9.46185 15.7962 11.3414 14.5404 12.9245 12.9572C14.5076 11.3741 15.7635 9.49457 16.6203 7.42605C17.4771 5.35755 17.9181 3.14054 17.9181 0.901611L9.39348 0.901616Z" fill="black"/>
<path d="M107.954 13.2216H103.818V26.3599H107.954V13.2216Z" fill="black"/>
<path d="M104.278 10.7616C104.71 11.1942 105.251 11.4104 105.9 11.4104C106.548 11.4104 107.08 11.1942 107.495 10.7616C107.91 10.3111 108.117 9.77037 108.117 9.1396C108.117 8.49081 107.91 7.95011 107.495 7.51759C107.08 7.08503 106.548 6.86877 105.9 6.86877C105.251 6.86877 104.71 7.08503 104.278 7.51759C103.863 7.95011 103.656 8.49081 103.656 9.1396C103.656 9.77037 103.863 10.3111 104.278 10.7616Z" fill="#007DFC"/>
<path d="M44.4773 26.36V7.27417H48.7216V22.6294H57.1832V26.36H44.4773Z" fill="black"/>
<path fill-rule="evenodd" clip-rule="evenodd" d="M64.8264 26.6572C63.4748 26.6572 62.2493 26.3599 61.1498 25.7651C60.0685 25.1523 59.2125 24.3233 58.5816 23.278C57.9509 22.2327 57.6355 21.0612 57.6355 19.7636C57.6355 18.466 57.9509 17.3036 58.5816 16.2763C59.2125 15.249 60.0685 14.438 61.1498 13.8433C62.2312 13.2304 63.4568 12.9241 64.8264 12.9241C66.1961 12.9241 67.4216 13.2215 68.503 13.8162C69.5843 14.4109 70.4404 15.231 71.0712 16.2763C71.702 17.3036 72.0174 18.466 72.0174 19.7636C72.0174 21.0612 71.702 22.2327 71.0712 23.278C70.4404 24.3233 69.5843 25.1523 68.503 25.7651C67.4216 26.3599 66.1961 26.6572 64.8264 26.6572ZM64.8264 22.8995C65.4212 22.8995 65.9438 22.7734 66.3944 22.5211C66.8449 22.2507 67.1874 21.8813 67.4216 21.4127C67.674 20.9261 67.8001 20.3764 67.8001 19.7636C67.8001 19.1509 67.674 18.6192 67.4216 18.1687C67.1693 17.7001 66.8179 17.3396 66.3673 17.0873C65.9348 16.8169 65.4212 16.6818 64.8264 16.6818C64.2497 16.6818 63.7361 16.8169 63.2855 17.0873C62.835 17.3396 62.4835 17.7001 62.2312 18.1687C61.9789 18.6373 61.8528 19.1779 61.8528 19.7906C61.8528 20.3854 61.9789 20.9261 62.2312 21.4127C62.4835 21.8813 62.835 22.2507 63.2855 22.5211C63.7361 22.7734 64.2497 22.8995 64.8264 22.8995Z" fill="black"/>
<path fill-rule="evenodd" clip-rule="evenodd" d="M75.2939 31.4966C76.3932 32.0012 77.6638 32.2535 79.1057 32.2535C80.5114 32.2535 81.764 31.9741 82.8633 31.4154C83.9627 30.8567 84.8277 30.0818 85.4585 29.0906C86.0893 28.0994 86.4051 26.9279 86.4051 25.5762V13.2218H82.3496V14.1045C82.048 13.8507 81.7055 13.6376 81.3224 13.4651C80.6194 13.1227 79.8175 12.9514 78.9164 12.9514C77.7089 12.9514 76.6365 13.2398 75.6994 13.8165C74.7621 14.3752 74.0233 15.1502 73.4826 16.1414C72.9419 17.1147 72.6716 18.214 72.6716 19.4396C72.6716 20.6471 72.9419 21.7464 73.4826 22.7376C74.0233 23.7289 74.7621 24.5129 75.6994 25.0896C76.6365 25.6663 77.7089 25.9547 78.9164 25.9547C79.7995 25.9547 80.6015 25.7835 81.3224 25.441C81.6716 25.2752 81.987 25.0797 82.2685 24.8546V25.6843C82.2685 26.6035 81.9712 27.3154 81.3764 27.82C80.7997 28.3247 79.9977 28.5769 78.9705 28.5769C78.1414 28.5769 77.4295 28.4328 76.8348 28.1444C76.2581 27.8561 75.7354 27.4325 75.2668 26.8738L72.7257 29.415C73.3564 30.3161 74.2125 31.01 75.2939 31.4966ZM81.1872 21.8996C80.7726 22.1519 80.2771 22.2781 79.7003 22.2781C79.1236 22.2781 78.619 22.1519 78.1864 21.8996C77.7719 21.6473 77.4475 21.3048 77.2133 20.8723C76.9789 20.4218 76.8618 19.9441 76.8618 19.4396C76.8618 18.8989 76.9789 18.4123 77.2133 17.9797C77.4475 17.5472 77.7809 17.2048 78.2135 16.9524C78.646 16.7001 79.1416 16.5739 79.7003 16.5739C80.2771 16.5739 80.7726 16.7001 81.1872 16.9524C81.6197 17.2048 81.9441 17.5472 82.1604 17.9797C82.3947 18.4123 82.5118 18.8989 82.5118 19.4396C82.5118 19.9802 82.3947 20.4668 82.1604 20.8993C81.9441 21.3139 81.6197 21.6473 81.1872 21.8996Z" fill="black"/>
<path fill-rule="evenodd" clip-rule="evenodd" d="M95.1091 26.6572C93.7571 26.6572 92.5312 26.3599 91.4324 25.7651C90.3506 25.1523 89.4948 24.3233 88.864 23.278C88.2331 22.2327 87.9177 21.0612 87.9177 19.7636C87.9177 18.466 88.2331 17.3036 88.864 16.2763C89.4948 15.249 90.3506 14.438 91.4324 13.8433C92.5133 13.2304 93.7392 12.9241 95.1091 12.9241C96.4781 12.9241 97.704 13.2215 98.7849 13.8162C99.8666 14.4109 100.723 15.231 101.353 16.2763C101.984 17.3036 102.3 18.466 102.3 19.7636C102.3 21.0612 101.984 22.2327 101.353 23.278C100.723 24.3233 99.8666 25.1523 98.7849 25.7651C97.704 26.3599 96.4781 26.6572 95.1091 26.6572ZM95.1091 22.8995C95.7032 22.8995 96.2258 22.7734 96.6767 22.5211C97.1268 22.2507 97.4695 21.8813 97.704 21.4127C97.9563 20.9261 98.0824 20.3764 98.0824 19.7636C98.0824 19.1509 97.9563 18.6192 97.704 18.1687C97.4516 17.7001 97.1004 17.3396 96.6495 17.0873C96.2173 16.8169 95.7032 16.6818 95.1091 16.6818C94.532 16.6818 94.0179 16.8169 93.5678 17.0873C93.1169 17.3396 92.7657 17.7001 92.5133 18.1687C92.261 18.6373 92.1348 19.1779 92.1348 19.7906C92.1348 20.3854 92.261 20.9261 92.5133 21.4127C92.7657 21.8813 93.1169 22.2507 93.5678 22.5211C94.0179 22.7734 94.532 22.8995 95.1091 22.8995Z" fill="black"/>
<path fill-rule="evenodd" clip-rule="evenodd" d="M117.895 26.6305C117.013 26.6305 116.201 26.4593 115.462 26.1169C115.073 25.9367 114.722 25.7215 114.408 25.4714V31.9021H110.326V13.2218H114.462V14.1286C114.762 13.8832 115.095 13.671 115.462 13.4921C116.201 13.1316 117.013 12.9514 117.895 12.9514C119.139 12.9514 120.238 13.2488 121.193 13.8436C122.167 14.4383 122.924 15.2493 123.464 16.2766C124.023 17.3039 124.302 18.4754 124.302 19.791C124.302 21.1066 124.023 22.2781 123.464 23.3054C122.924 24.3327 122.167 25.1436 121.193 25.7384C120.238 26.3331 119.139 26.6305 117.895 26.6305ZM117.139 22.8999C117.733 22.8999 118.247 22.7647 118.679 22.4944C119.13 22.224 119.481 21.8545 119.734 21.386C119.986 20.9174 120.112 20.3857 120.112 19.791C120.112 19.1782 119.986 18.6376 119.734 18.169C119.481 17.7004 119.13 17.34 118.679 17.0876C118.247 16.8172 117.742 16.6821 117.165 16.6821C116.589 16.6821 116.075 16.8172 115.625 17.0876C115.192 17.34 114.85 17.7004 114.598 18.169C114.345 18.6376 114.219 19.1782 114.219 19.791C114.219 20.3857 114.336 20.9174 114.57 21.386C114.823 21.8545 115.174 22.224 115.625 22.4944C116.075 22.7647 116.58 22.8999 117.139 22.8999Z" fill="black"/>
<path d="M128.351 26.3871C129.108 26.5854 129.873 26.6845 130.648 26.6845C132.288 26.6845 133.586 26.3061 134.541 25.5491C135.514 24.7922 136.001 23.7739 136.001 22.4943C136.001 21.6653 135.848 20.9984 135.541 20.4938C135.235 19.9712 134.839 19.5566 134.352 19.2503C133.865 18.9439 133.351 18.7005 132.811 18.5203C132.271 18.3401 131.756 18.1869 131.271 18.0607C130.784 17.9346 130.387 17.7904 130.081 17.6282C129.775 17.466 129.621 17.2497 129.621 16.9794C129.621 16.7271 129.739 16.5378 129.972 16.4117C130.207 16.2675 130.558 16.1955 131.027 16.1955C131.514 16.1955 132.009 16.2945 132.513 16.4928C133.036 16.691 133.505 17.0335 133.919 17.5201L136.271 15.1411C135.677 14.3842 134.902 13.8164 133.946 13.438C133.01 13.0415 131.982 12.8433 130.865 12.8433C129.802 12.8433 128.873 13.0235 128.081 13.3839C127.287 13.7444 126.674 14.24 126.242 14.8708C125.81 15.4835 125.593 16.2135 125.593 17.0605C125.593 17.8535 125.747 18.5113 126.053 19.034C126.359 19.5386 126.756 19.9351 127.242 20.2234C127.729 20.5118 128.243 20.7371 128.783 20.8993C129.324 21.0615 129.838 21.2147 130.324 21.3589C130.81 21.4851 131.207 21.6383 131.514 21.8185C131.838 21.9807 132 22.224 132 22.5483C132 22.8007 131.865 22.9989 131.595 23.1431C131.342 23.2872 130.973 23.3594 130.486 23.3594C129.783 23.3594 129.134 23.2332 128.54 22.9809C127.945 22.7106 127.431 22.3411 126.999 21.8725L124.647 24.2515C125.098 24.738 125.638 25.1707 126.269 25.5491C126.918 25.9095 127.612 26.1888 128.351 26.3871Z" fill="black"/>
<path d="M143.544 26.6571C142.337 26.6571 141.264 26.4138 140.328 25.9273C139.408 25.4226 138.687 24.7377 138.165 23.8727C137.641 22.9896 137.381 21.9804 137.381 20.8449V13.2214H141.517V20.7908C141.517 21.2414 141.588 21.6289 141.733 21.9533C141.895 22.2777 142.13 22.53 142.436 22.7102C142.743 22.8905 143.112 22.9806 143.544 22.9806C144.157 22.9806 144.644 22.7913 145.004 22.4128C145.365 22.0163 145.545 21.4757 145.545 20.7908V13.2214H149.681V20.8179C149.681 21.9713 149.42 22.9896 148.896 23.8727C148.374 24.7377 147.654 25.4226 146.734 25.9273C145.815 26.4138 144.752 26.6571 143.544 26.6571Z" fill="black"/>
<path d="M155.872 13.2218H151.736V26.3602H155.872V18.6826C155.872 18.2321 155.963 17.8536 156.142 17.5472C156.341 17.2408 156.603 17.0065 156.927 16.8443C157.251 16.664 157.621 16.5739 158.035 16.5739C158.63 16.5739 159.125 16.7632 159.522 17.1417C159.937 17.5021 160.144 18.0158 160.144 18.6826V26.3602H164.28V18.6826C164.28 18.2321 164.37 17.8536 164.55 17.5472C164.749 17.2408 165.01 17.0065 165.335 16.8443C165.658 16.664 166.028 16.5739 166.443 16.5739C167.038 16.5739 167.533 16.7632 167.929 17.1417C168.344 17.5021 168.551 18.0158 168.551 18.6826V26.3602H172.688V18.223C172.688 17.1237 172.453 16.1865 171.985 15.4115C171.534 14.6185 170.912 14.0148 170.119 13.6003C169.344 13.1677 168.452 12.9514 167.443 12.9514C166.415 12.9514 165.487 13.1767 164.659 13.6273C164.12 13.9144 163.649 14.2848 163.246 14.7387C162.87 14.2639 162.413 13.8755 161.874 13.5732C161.153 13.1587 160.333 12.9514 159.414 12.9514C158.441 12.9514 157.567 13.1587 156.792 13.5732C156.454 13.7457 156.148 13.9522 155.872 14.1929V13.2218Z" fill="black"/>
</g>
<defs>
<clipPath id="clip0_100_122">
<rect width="172.197" height="34.0984" fill="white" transform="translate(0.868896 0.901611)"/>
</clipPath>
</defs>
</svg>
