<svg width="136" height="35" viewBox="0 0 136 35" fill="none" xmlns="http://www.w3.org/2000/svg">
<g clip-path="url(#clip0_100_102)">
<path d="M-52 17.0983H-44.5205C-42.8139 17.0983 -41.0459 16.9943 -39.5933 16.0992C-38.4578 15.3996 -37.502 14.4438 -36.8024 13.3083C-35.9073 11.8557 -35.8033 10.0877 -35.8033 8.38109V0.901611H-46.8852C-48.2418 0.901611 -49.5427 1.44049 -50.5019 2.39969C-51.4611 3.35889 -52 4.65985 -52 6.01637V17.0983ZM-12.399 2.60653C-12.399 3.0587 -12.5786 3.49235 -12.8984 3.81209C-13.2181 4.13182 -13.6518 4.31145 -14.1039 4.31145C-14.5561 4.31145 -14.9898 4.13182 -15.3095 3.81209C-15.6292 3.49235 -15.8088 3.0587 -15.8088 2.60653C-15.8088 2.15436 -15.6292 1.7207 -15.3095 1.40097C-14.9898 1.08124 -14.5561 0.901611 -14.1039 0.901611C-13.6518 0.901611 -13.2181 1.08124 -12.8984 1.40097C-12.5786 1.7207 -12.399 2.15436 -12.399 2.60653ZM128.475 11.2198C133.241 11.2198 135.541 14.5486 135.541 18.4043V25.6459H130.553V19.2636C130.553 17.516 129.916 16.0737 128.087 16.0737C126.259 16.0737 125.649 17.516 125.649 19.2636V25.6451H120.661V19.2636C120.661 17.516 120.052 16.0737 118.222 16.0737C116.394 16.0737 115.756 17.516 115.756 19.2636V25.6451H110.769V18.4034C110.769 14.5478 113.068 11.2189 117.835 11.2189C120.44 11.2189 122.324 12.2453 123.183 13.9374C124.097 12.2453 126.092 11.2181 128.475 11.2181V11.2198ZM101.807 21.2072C103.414 21.2072 104.107 19.7367 104.107 17.9883V11.7739H109.093V18.5987C109.093 22.6768 106.711 26.0619 101.807 26.0619C96.9016 26.0619 94.519 22.6777 94.519 18.5987V11.7739H99.5067V17.9883C99.5067 19.7358 100.199 21.2072 101.807 21.2072ZM87.1852 26.0892C84.0542 26.0892 82.0313 25.0074 80.8395 22.8993L84.442 20.8739C84.9407 21.7613 85.6883 22.2054 86.9355 22.2054C87.961 22.2054 88.4315 21.8448 88.4315 21.4007C88.4315 19.7086 81.1166 21.4288 81.1166 16.0473C81.1166 13.4387 83.333 11.3306 87.1017 11.3306C90.399 11.3306 92.2003 12.9392 93.0041 14.4932L89.4016 16.5459C89.0973 15.7139 88.1545 15.2144 87.2125 15.2144C86.4922 15.2144 86.1043 15.5196 86.1043 15.9356C86.1043 17.6558 93.4193 16.0745 93.4193 21.2899C93.4193 24.2027 90.5652 26.0892 87.1852 26.0892ZM69.7593 32.0266H64.7715V18.6822C64.7715 14.437 67.958 11.3579 72.3917 11.3579C76.7145 11.3579 80.0118 14.6594 80.0118 18.6822C80.0118 23.121 77.0742 26.0619 72.6687 26.0619C71.6432 26.0619 70.6186 25.7568 69.7593 25.2845V32.0266ZM72.3917 21.3734C73.9713 21.3734 75.0241 20.1527 75.0241 18.7095C75.0241 17.2398 73.9713 16.0464 72.3917 16.0464C70.8121 16.0464 69.7593 17.2398 69.7593 18.7103C69.7593 20.1527 70.8121 21.3734 72.3917 21.3734ZM59.7753 10.3042C58.1403 10.3042 56.7831 8.94456 56.7831 7.30784C56.7831 5.67112 58.1403 4.31145 59.7753 4.31145C61.4103 4.31145 62.7683 5.67112 62.7683 7.30784C62.7683 8.94456 61.4103 10.3042 59.7753 10.3042ZM57.2818 11.7739H62.2696V25.6459H57.2818V11.7739ZM47.7121 26.0619C43.3893 26.0619 40.092 22.7331 40.092 18.6822C40.092 14.6594 43.3893 11.3306 47.7121 11.3306C52.035 11.3306 55.3323 14.6594 55.3323 18.6822C55.3323 22.7331 52.035 26.0619 47.7121 26.0619ZM47.7121 21.3734C49.2917 21.3734 50.3445 20.1527 50.3445 18.7095C50.3445 17.2398 49.2917 16.0191 47.7121 16.0191C46.1325 16.0191 45.0797 17.2398 45.0797 18.7095C45.0797 20.1527 46.1325 21.3734 47.7121 21.3734ZM30.674 32.4426C27.2386 32.4426 24.7443 30.9167 23.4699 28.1973L27.5984 25.9784C28.0416 26.9221 28.8728 27.893 30.5905 27.893C32.3926 27.893 33.5835 26.755 33.7224 24.7577C33.0575 25.3408 32.0039 25.784 30.4251 25.784C26.5729 25.784 23.469 22.8158 23.469 18.6541C23.469 14.6322 26.7672 11.3579 31.09 11.3579C35.5237 11.3579 38.7102 14.4378 38.7102 18.6822V24.1754C38.7102 29.1692 35.2458 32.4426 30.674 32.4426ZM31.0065 21.0964C32.5026 21.0964 33.6389 20.0692 33.6389 18.5433C33.6389 17.0455 32.5034 16.0464 31.0065 16.0464C29.5377 16.0464 28.3741 17.0455 28.3741 18.5441C28.3741 20.07 29.5377 21.0955 31.0065 21.0955V21.0964ZM15.0092 26.0619C10.6864 26.0619 7.38826 22.7331 7.38826 18.6822C7.38826 14.6594 10.6864 11.3306 15.0092 11.3306C19.3312 11.3306 22.6294 14.6594 22.6294 18.6822C22.6294 22.7331 19.3321 26.0619 15.0092 26.0619ZM15.0092 21.3734C16.5889 21.3734 17.6416 20.1527 17.6416 18.7095C17.6416 17.2398 16.5889 16.0191 15.0092 16.0191C13.4296 16.0191 12.3768 17.2398 12.3768 18.7095C12.3768 20.1527 13.4296 21.3734 15.0092 21.3734ZM-1.69384 6.91997V20.9293H6.56393V25.6459H-2.38689C-5.54525 25.6459 -6.81967 23.9811 -6.81967 21.3453V6.91997H-1.69384Z" fill="black"/>
</g>
<defs>
<clipPath id="clip0_100_102">
<rect width="187.541" height="34.0984" fill="white" transform="translate(-52 0.901611)"/>
</clipPath>
</defs>
</svg>
