<svg width="187" height="35" viewBox="0 0 187 35" fill="none" xmlns="http://www.w3.org/2000/svg">
<g clip-path="url(#clip0_100_149)">
<path d="M105.172 26.0694H109.147V11.0759H105.172V26.0694ZM105.172 8.73771H109.147V5.172H105.172V8.73771Z" fill="black"/>
<path d="M111.709 30.9797H115.684V24.3743H115.742C116.589 25.6603 117.963 26.5079 120.067 26.5079C123.925 26.5079 126.556 23.4391 126.556 18.5874C126.556 13.911 124.013 10.6667 120.038 10.6667C117.992 10.6667 116.589 11.6313 115.625 12.9465H115.537V11.0759H111.709V30.9797ZM119.22 23.2052C116.852 23.2052 115.596 21.4224 115.596 18.7042C115.596 16.0153 116.589 13.8818 119.074 13.8818C121.529 13.8818 122.522 15.8692 122.522 18.7042C122.522 21.5393 121.237 23.2052 119.22 23.2052Z" fill="black"/>
<path d="M134.484 26.5077C138.226 26.5077 140.798 24.6956 140.798 21.6851C140.798 18.1779 138.021 17.4765 135.507 16.9504C133.374 16.512 131.387 16.395 131.387 15.1091C131.387 14.0277 132.41 13.4431 133.959 13.4431C135.654 13.4431 136.677 14.0277 136.852 15.6351H140.447C140.155 12.6248 137.963 10.6665 134.017 10.6665C130.597 10.6665 127.909 12.2156 127.909 15.4598C127.909 18.7332 130.539 19.4639 133.228 19.99C135.274 20.3992 137.173 20.5453 137.173 21.9774C137.173 23.0296 136.18 23.7019 134.427 23.7019C132.643 23.7019 131.416 22.9419 131.153 21.2176H127.47C127.704 24.4033 130.13 26.5077 134.484 26.5077Z" fill="black"/>
<path d="M155.889 26.0695V11.0759H151.914V19.7272C151.914 21.7146 150.774 23.1175 148.903 23.1175C147.208 23.1175 146.419 22.153 146.419 20.3994V11.0759H142.473V21.0716C142.473 24.345 144.344 26.4787 147.676 26.4787C149.781 26.4787 150.949 25.6895 151.972 24.3159H152.06V26.0695H155.889Z" fill="black"/>
<path d="M158.46 26.0695H162.435V17.3598C162.435 15.3723 163.517 14.0864 165.124 14.0864C166.585 14.0864 167.433 14.9631 167.433 16.6583V26.0695H171.408V17.3598C171.408 15.3723 172.431 14.0864 174.096 14.0864C175.558 14.0864 176.406 14.9631 176.406 16.6583V26.0695H180.381V15.9861C180.381 12.7126 178.597 10.6667 175.441 10.6667C173.541 10.6667 171.963 11.6605 170.94 13.2972H170.882C170.151 11.7189 168.631 10.6667 166.731 10.6667C164.656 10.6667 163.195 11.7189 162.377 13.0926H162.289V11.0759H158.46V26.0695Z" fill="black"/>
<path d="M1.57202 26.0695H5.54691V5.17212H1.57202V26.0695Z" fill="black"/>
<path d="M15.2653 26.5079C19.9124 26.5079 23.0981 23.0591 23.0981 18.5874C23.0981 14.1155 19.9124 10.6667 15.2653 10.6667C10.6181 10.6667 7.43237 14.1155 7.43237 18.5874C7.43237 23.0591 10.6181 26.5079 15.2653 26.5079ZM15.2653 23.4683C12.8102 23.4683 11.4657 21.51 11.4657 18.5874C11.4657 15.6646 12.8102 13.6772 15.2653 13.6772C17.6911 13.6772 19.0648 15.6646 19.0648 18.5874C19.0648 21.51 17.6911 23.4683 15.2653 23.4683Z" fill="black"/>
<path d="M31.5516 31.184C33.7728 31.184 35.7019 30.6579 36.9586 29.4888C38.0692 28.4658 38.7415 27.0337 38.7415 24.9294V11.0757H34.9127V12.654H34.8543C33.9482 11.3972 32.5745 10.6665 30.704 10.6665C26.9045 10.6665 24.2156 13.5308 24.2156 18.0025C24.2156 22.5327 27.489 25.1632 30.8209 25.1632C32.7206 25.1632 33.8606 24.4033 34.7373 23.4096H34.825V25.0463C34.825 27.0922 33.7436 28.1736 31.4931 28.1736C29.6518 28.1736 28.8042 27.4429 28.4827 26.5077H24.537C24.9462 29.4304 27.4598 31.184 31.5516 31.184ZM31.4931 21.9774C29.4472 21.9774 28.1028 20.4868 28.1028 17.9441C28.1028 15.4306 29.4472 13.8523 31.4639 13.8523C33.8606 13.8523 35.0296 15.7229 35.0296 17.9149C35.0296 20.1361 34.0067 21.9774 31.4931 21.9774Z" fill="black"/>
<path d="M48.403 26.5077C53.0501 26.5077 56.2359 23.0589 56.2359 18.5871C56.2359 14.1153 53.0501 10.6665 48.403 10.6665C43.7559 10.6665 40.5701 14.1153 40.5701 18.5871C40.5701 23.0589 43.7559 26.5077 48.403 26.5077ZM48.403 23.4681C45.9479 23.4681 44.6035 21.5098 44.6035 18.5871C44.6035 15.6644 45.9479 13.677 48.403 13.677C50.8288 13.677 52.2026 15.6644 52.2026 18.5871C52.2026 21.5098 50.8288 23.4681 48.403 23.4681Z" fill="black"/>
<path d="M181.825 8.61428C181.825 7.94171 182.37 7.39648 183.043 7.39648H185.478C186.151 7.39648 186.697 7.94171 186.697 8.61428C186.697 9.28685 186.151 9.83209 185.478 9.83209H183.043C182.37 9.83209 181.825 9.28685 181.825 8.61428Z" fill="black"/>
<path fill-rule="evenodd" clip-rule="evenodd" d="M80.3417 0.901489C89.7573 0.901489 97.3911 8.53467 97.3911 17.9507C97.3911 27.3667 89.7573 34.9999 80.3417 34.9999C70.9257 34.9999 63.2925 27.3667 63.2925 17.9507C63.2925 8.53467 70.9257 0.901489 80.3417 0.901489ZM79.7254 2.17727C77.7804 2.451 75.9283 4.01389 74.4906 6.6278C74.0736 7.386 73.6973 8.22365 73.3695 9.12809C75.3243 8.63685 77.4718 8.34723 79.7254 8.30243V2.17727ZM71.9285 9.53758C72.3363 8.25785 72.8351 7.08045 73.4107 6.03385C74.1234 4.73806 74.9692 3.61909 75.9222 2.75965C70.7402 4.26464 66.6556 8.34925 65.1506 13.5313C66.01 12.5783 67.129 11.7325 68.4248 11.0198C69.4714 10.4442 70.6488 9.94531 71.9285 9.53758ZM71.519 10.9785C71.0278 12.9334 70.7382 15.0808 70.6934 17.3344H64.5682C64.8419 15.3894 66.4048 13.5373 69.0188 12.0997C69.777 11.6827 70.6146 11.3064 71.519 10.9785ZM71.9261 17.3344C71.977 14.875 72.3311 12.566 72.9169 10.5259C74.957 9.94011 77.266 9.586 79.7254 9.53511V12.1973C78.8079 14.5461 76.9366 16.4173 74.5876 17.3344H71.9261ZM70.6934 18.5669H64.5682C64.8419 20.512 66.4048 22.3639 69.0188 23.8016C69.777 24.2186 70.6146 24.5949 71.519 24.9228C71.0278 22.968 70.7382 20.8206 70.6934 18.5669ZM72.9169 25.3754C72.3311 23.3353 71.977 21.0263 71.9261 18.5669H74.5876C76.9366 19.4841 78.8079 21.3552 79.7254 23.7041V26.3662C77.266 26.3153 74.957 25.9612 72.9169 25.3754ZM71.9285 26.3638C70.6488 25.956 69.4714 25.4572 68.4248 24.8815C67.129 24.1688 66.01 23.323 65.1506 22.3701C66.6556 27.5521 70.7402 31.6367 75.9222 33.1417C74.9692 32.2822 74.1234 31.1633 73.4107 29.8675C72.8351 28.8209 72.3363 27.6435 71.9285 26.3638ZM79.7254 33.7241C77.7804 33.4503 75.9283 31.8874 74.4906 29.2735C74.0736 28.5154 73.6973 27.6777 73.3695 26.7733C75.3243 27.2645 77.4718 27.5541 79.7254 27.5989V33.7241ZM84.7611 33.1417C85.714 32.2822 86.5598 31.1633 87.2724 29.8675C87.8478 28.8209 88.3474 27.6435 88.7548 26.3638C90.0344 25.956 91.2116 25.4572 92.2584 24.8815C93.5542 24.1688 94.6735 23.323 95.5327 22.3701C94.0273 27.5521 89.9432 31.6367 84.7611 33.1417ZM87.3142 26.7733C86.986 27.6777 86.6092 28.5154 86.1923 29.2735C84.7549 31.8874 82.9029 33.4503 80.9578 33.7241V27.5989C83.2115 27.5541 85.3589 27.2645 87.3142 26.7733ZM89.164 24.9228C90.0685 24.5949 90.9064 24.2186 91.6643 23.8016C94.2788 22.364 95.8413 20.512 96.115 18.5669H89.99C89.9449 20.8206 89.655 22.968 89.164 24.9228ZM88.7574 18.5669C88.7062 21.0263 88.3525 23.3353 87.766 25.3754C85.7262 25.9612 83.4172 26.3153 80.9578 26.3662V23.706C81.8751 21.3563 83.7468 19.4843 86.0964 18.5669H88.7574ZM89.99 17.3344H96.115C95.8413 15.3894 94.2788 13.5373 91.6643 12.0997C90.9064 11.6827 90.0685 11.3064 89.164 10.9785C89.655 12.9334 89.9449 15.0808 89.99 17.3344ZM87.766 10.5259C88.3525 12.566 88.7062 14.875 88.7574 17.3344H86.0964C83.7468 16.417 81.8751 14.545 80.9578 12.1953V9.53511C83.4172 9.586 85.7262 9.94011 87.766 10.5259ZM88.7548 9.53758C90.0344 9.94531 91.2116 10.4442 92.2584 11.0198C93.5542 11.7325 94.6735 12.5783 95.5327 13.5313C94.0273 8.34925 89.9432 4.26464 84.7611 2.75965C85.714 3.61909 86.5598 4.73806 87.2724 6.03385C87.8478 7.08045 88.3474 8.25785 88.7548 9.53758ZM80.9578 2.17727C82.9029 2.451 84.7549 4.01389 86.1923 6.6278C86.6092 7.38601 86.986 8.22365 87.3142 9.12809C85.3589 8.63685 83.2115 8.34723 80.9578 8.30243V2.17727Z" fill="black"/>
</g>
<defs>
<clipPath id="clip0_100_149">
<rect width="185.836" height="34.0984" fill="white" transform="translate(0.868896 0.901611)"/>
</clipPath>
</defs>
</svg>
