<svg width="86" height="35" viewBox="0 0 86 35" fill="none" xmlns="http://www.w3.org/2000/svg">
<g clip-path="url(#clip0_100_135)">
<path d="M4.13173 4.51178C4.35337 3.45984 5.40189 2.60653 6.47002 2.60653H12.277L7.44779 25.472H1.64084C0.571859 25.472 -0.115223 24.6196 0.107268 23.5668L4.13173 4.51178ZM23.4885 4.51178C23.711 3.45984 24.7587 2.60653 25.8268 2.60653H31.6338L26.8046 25.472H20.9976C19.9286 25.472 19.2416 24.6196 19.4641 23.5668L23.4885 4.51178ZM62.2029 4.51178C62.4246 3.45984 63.4714 2.60653 64.5412 2.60653H70.3482L65.519 25.472H59.7112C58.6422 25.472 57.956 24.6196 58.1785 23.5668L62.2029 4.51178ZM33.5697 2.60653H39.3766C40.4456 2.60653 41.1327 3.45899 40.9102 4.51178L36.8858 23.5668C36.6641 24.6196 35.6164 25.472 34.5475 25.472H28.7405L33.5697 2.60653ZM72.2841 2.60653H78.0911C79.16 2.60653 79.8471 3.45899 79.6246 4.51178L75.5993 23.5668C75.3777 24.6196 74.3309 25.472 73.2619 25.472H67.4541L72.2841 2.60653ZM42.8462 4.51178C43.0678 3.45984 44.1146 2.60653 45.1836 2.60653H50.9914L46.1614 25.472H40.3544C39.2854 25.472 38.5984 24.6196 38.8217 23.5668L42.8453 4.51178H42.8462ZM52.9265 2.60653H58.7343C59.8033 2.60653 60.4895 3.45899 60.267 4.51178L54.2307 33.0947C54.0074 34.1467 52.9606 35 51.8916 35H46.0838L52.9265 2.60653ZM10.9932 17.8502H18.7361L17.529 23.5668C17.3065 24.6196 16.2588 25.472 15.1907 25.472H9.38288L10.9923 17.8511L10.9932 17.8502ZM38.017 27.3781H45.759L44.1496 35H38.3426C37.2728 35 36.5865 34.1475 36.809 33.0947L38.017 27.3781ZM59.0335 29.1504L58.0532 33.7929C58.0105 33.9924 57.944 34.0469 57.7412 34.0469H57.2953C57.0924 34.0469 57.0481 33.9924 57.0907 33.7929L58.0711 29.1504C58.1137 28.9518 58.1802 28.8964 58.3831 28.8964H58.8289C59.0318 28.8964 59.0761 28.9518 59.0335 29.1504ZM60.3224 32.2823H60.2312C60.134 32.2823 60.0999 32.3096 60.0803 32.4059L59.7871 33.7929C59.7444 33.9924 59.6771 34.0469 59.4751 34.0469H59.0284C58.8263 34.0469 58.782 33.9924 58.8238 33.7929L59.8041 29.1504C59.8467 28.9518 59.9149 28.8964 60.117 28.8964H61.0376C62.0981 28.8964 62.4996 29.274 62.3035 30.2006L62.1399 30.9772C61.9438 31.9047 61.3829 32.2823 60.3224 32.2823ZM60.5918 29.9815L60.3361 31.1972C60.3147 31.2935 60.3369 31.3208 60.4349 31.3208H60.5816C60.9225 31.3208 61.1058 31.1835 61.18 30.8332L61.2823 30.3455C61.3564 29.996 61.232 29.8579 60.8901 29.8579H60.7435C60.6463 29.8579 60.6122 29.8852 60.5918 29.9815ZM63.7783 30.73L64.5029 31.5271C64.8831 31.9388 64.9359 32.186 64.8387 32.6463L64.8132 32.7699C64.6299 33.6352 64.1934 34.116 63.1816 34.116C62.1705 34.116 61.9208 33.7111 62.1543 32.6046L62.1833 32.4682C62.226 32.2687 62.2933 32.2133 62.4953 32.2133H62.9693C63.1722 32.2133 63.2165 32.2687 63.1739 32.4673L63.11 32.7699C63.052 33.0444 63.1406 33.1544 63.3844 33.1544C63.6291 33.1544 63.7621 33.0521 63.8149 32.8049L63.8422 32.6736C63.8831 32.481 63.861 32.3855 63.6513 32.1587L62.9693 31.4239C62.5874 31.019 62.5388 30.7846 62.636 30.3242L62.6675 30.1742C62.8508 29.309 63.2873 28.8273 64.2983 28.8273C65.3102 28.8273 65.5599 29.2331 65.3263 30.3387L65.2974 30.476C65.2547 30.6754 65.1874 30.73 64.9854 30.73H64.5105C64.3085 30.73 64.2642 30.6754 64.306 30.476L64.3699 30.1742C64.4279 29.8989 64.34 29.7897 64.0954 29.7897C63.8516 29.7897 63.7178 29.892 63.6658 30.1393L63.641 30.256C63.5984 30.4555 63.6206 30.5518 63.7783 30.73ZM67.8633 29.1504C67.9059 28.9518 67.9724 28.8964 68.1753 28.8964H68.6211C68.824 28.8964 68.8683 28.9518 68.8257 29.1504L68.096 32.6054C67.8624 33.7111 67.4421 34.116 66.4303 34.116C65.4193 34.116 65.1695 33.7111 65.4031 32.6046L66.1328 29.1504C66.1754 28.9518 66.2427 28.8964 66.4448 28.8964H66.8915C67.0935 28.8964 67.1378 28.9518 67.0961 29.1504L66.3314 32.7699C66.2734 33.0444 66.3689 33.1544 66.634 33.1544C66.8915 33.1544 67.0406 33.0444 67.0986 32.7699L67.8633 29.1504ZM70.7667 31.9456C70.7693 32.001 70.7872 32.0138 70.8222 32.0138C70.8562 32.0138 70.881 32.001 70.9065 31.9456L72.1119 29.0754C72.1707 28.9305 72.2406 28.8964 72.4154 28.8964H73.0922C73.2943 28.8964 73.3386 28.9518 73.2968 29.1504L72.3165 33.7929C72.2739 33.9924 72.2057 34.0469 72.0037 34.0469H71.6831C71.4811 34.0469 71.4359 33.9924 71.4785 33.7929L71.9491 31.568C71.9619 31.5066 71.9508 31.4921 71.909 31.4921C71.8809 31.4921 71.8494 31.5066 71.8323 31.5543L70.8588 33.821C70.7889 33.9855 70.6994 34.0469 70.4974 34.0469H70.3081C70.0984 34.0469 70.0353 33.9855 70.0353 33.821L70.0115 31.5535C70.0072 31.5057 69.9961 31.4921 69.9612 31.4921C69.9194 31.4921 69.9023 31.5066 69.8896 31.568L69.4199 33.7929C69.3772 33.9924 69.3107 34.0469 69.1078 34.0469H68.7873C68.5844 34.0469 68.5401 33.9924 68.5827 33.7929L69.5631 29.1504C69.6057 28.9518 69.673 28.8964 69.8751 28.8964H70.4547C70.6985 28.8964 70.777 28.9518 70.7753 29.1922L70.7659 31.9456H70.7667ZM85.3114 2.60653C85.3114 3.5485 84.5527 4.31145 83.6176 4.31145C83.3944 4.31078 83.1735 4.26614 82.9676 4.18009C82.7617 4.09403 82.5747 3.96825 82.4174 3.80992C82.2601 3.65159 82.1356 3.46382 82.0508 3.25734C81.9661 3.05086 81.9229 2.82971 81.9237 2.60653C81.9237 1.66456 82.6824 0.901611 83.6176 0.901611C84.5527 0.901611 85.3114 1.66456 85.3114 2.60653Z" fill="black"/>
</g>
<defs>
<clipPath id="clip0_100_135">
<rect width="85.2459" height="34.0984" fill="white" transform="translate(0.0654297 0.901611)"/>
</clipPath>
</defs>
</svg>
