<svg width="149" height="34" viewBox="0 0 149 34" fill="none" xmlns="http://www.w3.org/2000/svg">
<g clip-path="url(#clip0_100_105)">
<path d="M43.337 18.0437C43.3665 17.4758 43.3665 16.9067 43.337 16.3388H10.987C10.9802 16.4803 10.9743 16.6227 10.9709 16.765H4.1938L4.19039 16.9782H0.541016V17.4044H4.18954L4.19465 17.6175H10.9709C10.9743 17.7607 10.9794 17.9022 10.9879 18.0437H20.2754C20.2402 17.7609 20.2225 17.4762 20.2226 17.1913H33.8619C33.8619 17.4802 33.8449 17.765 33.8091 18.0437H43.337ZM43.2697 15.4863H33.648C33.5732 15.1963 33.4792 14.9115 33.3667 14.6339H20.7204C20.6088 14.9101 20.5141 15.194 20.4391 15.4863H11.0535C11.0689 15.344 11.0859 15.2016 11.1047 15.0601H4.32764L4.35662 14.8521H0.541016V14.4259H4.42397L4.46318 14.2077H11.2402C11.2658 14.0653 11.2948 13.9229 11.3255 13.7814H42.9994C43.1188 14.3398 43.21 14.9084 43.2697 15.4863ZM42.7923 12.929H32.3667C32.1208 12.6221 31.849 12.3369 31.5543 12.0765H22.5319C22.2378 12.3374 21.965 12.6221 21.7195 12.929H11.5326C11.571 12.7866 11.6119 12.6442 11.6545 12.5027H4.87747L4.95249 12.2632H0.541016V11.8361H5.09485L5.16134 11.6494H11.9384C11.9895 11.5062 12.0441 11.3647 12.1004 11.2232H42.2237C42.4436 11.7773 42.6337 12.3476 42.7923 12.929ZM41.8571 10.3716H12.4669C12.5334 10.2284 12.6016 10.0869 12.6724 9.94536H5.89616L6.01636 9.71008H0.541016V9.28386H6.24738L6.35564 9.09291H13.1327C13.2154 8.94969 13.3006 8.80733 13.3876 8.66668H40.9365C41.2758 9.21395 41.5844 9.7834 41.8571 10.3716ZM11.0535 18.8962H43.2705C43.21 19.4742 43.1188 20.0436 42.9994 20.6011H32.9507C33.1084 20.3283 33.2482 20.0436 33.3675 19.7486H20.7187C20.8381 20.0436 20.977 20.3283 21.1347 20.6011H11.3246C11.2943 20.4594 11.2659 20.3173 11.2394 20.1749H4.46318C4.4493 20.1 4.43594 20.0249 4.42311 19.9498H0.541016V19.5236H4.35577C4.34598 19.4566 4.3366 19.3895 4.32764 19.3224H11.1047C11.0858 19.1806 11.0687 19.0385 11.0535 18.8962ZM11.5318 21.4536H42.7914C42.6337 22.0358 42.4436 22.6044 42.2237 23.1585H30.3472C30.7792 22.9187 31.1839 22.6329 31.5543 22.306H22.5319C22.9023 22.6329 23.307 22.9187 23.739 23.1585H12.1004C12.0444 23.0172 11.9904 22.8751 11.9384 22.7323H5.16134L5.08803 22.5268H0.541016V22.1006H4.94652C4.92327 22.0271 4.90054 21.9535 4.87833 21.8798H11.6545C11.6119 21.7383 11.571 21.5968 11.5318 21.4536ZM12.4669 24.0109H41.8571C41.5846 24.5971 41.2772 25.1665 40.9365 25.7159H13.3876C13.3001 25.5751 13.2149 25.433 13.1318 25.2896H6.35564C6.31302 25.2163 6.27125 25.143 6.23033 25.0688H0.541016V24.6426H6.00102L5.89616 24.438H12.6732C12.6024 24.297 12.5336 24.1549 12.4669 24.0118V24.0109ZM14.9646 27.847C15.0899 27.9919 15.2187 28.1334 15.3499 28.2732H38.9741C39.4773 27.7371 39.9435 27.1675 40.3696 26.5683H13.9545C14.0568 26.7124 14.1608 26.8547 14.2682 26.9945H7.49111L7.6599 27.2119H0.541016V27.6382H8.00856C8.06738 27.7089 8.12705 27.778 8.18757 27.847H14.9646ZM17.7922 30.4044C17.9994 30.5519 18.2099 30.6942 18.423 30.8306H35.901C36.6856 30.3267 37.4254 29.7563 38.1123 29.1257H16.2126C16.3703 29.2706 16.5314 29.413 16.6951 29.5519H9.91807C10.0101 29.6304 10.103 29.7071 10.1968 29.7821H0.541016V30.2083H10.7467C10.8353 30.2748 10.9257 30.3404 11.016 30.4044H17.7931H17.7922ZM23.7739 33.0334C24.8668 33.2661 25.9997 33.388 27.1616 33.388C29.765 33.388 32.2244 32.7742 34.4032 31.6831H19.92C20.2234 31.8348 20.5312 31.9772 20.844 32.1093H14.067C14.188 32.1604 14.3099 32.2107 14.4318 32.2593H0.541016V32.6856H15.6509C17.1486 33.1425 18.7385 33.388 20.3854 33.388C21.5473 33.388 22.6811 33.2661 23.7739 33.0334ZM13.9545 7.81422H40.3696C39.9435 7.21504 39.4773 6.64543 38.9741 6.1093H15.3499C15.2187 6.2491 15.0899 6.39061 14.9638 6.53553H8.18757L8.03754 6.71113H0.541016V7.13736H7.68633C7.62069 7.22005 7.5559 7.30359 7.49197 7.38799H14.2682C14.1608 7.52864 14.0568 7.671 13.9545 7.81422ZM16.2118 5.25684H38.1114C37.4249 4.62623 36.6853 4.05582 35.901 3.55192H18.423C18.2099 3.68917 17.9994 3.83153 17.7922 3.97815H11.016C10.9223 4.0455 10.8285 4.11284 10.7364 4.18189H0.541016V4.60812H10.1874C10.0971 4.68143 10.0076 4.75559 9.91892 4.83061H16.6951C16.5314 4.96956 16.3703 5.11192 16.2118 5.25684ZM19.9208 2.69946H34.4041C32.1561 1.57459 29.6762 0.99075 27.1625 0.994544C25.9997 0.994544 24.8668 1.1173 23.7739 1.35002C22.66 1.11321 21.5242 0.994061 20.3854 0.994544C18.5663 0.994544 16.8179 1.29461 15.1854 1.847H0.541016V2.27323H20.844C20.5319 2.40555 20.224 2.5477 19.9208 2.69946ZM95.3754 0.75415C95.9354 0.75415 96.3753 0.893954 96.695 1.17356C97.0283 1.44038 97.1945 1.8129 97.1945 2.29369C97.1945 2.77363 97.0283 3.15297 96.695 3.43258C96.3753 3.6994 95.9354 3.83323 95.3754 3.83323C94.8162 3.83323 94.3695 3.6994 94.0362 3.43258C93.7165 3.15297 93.5562 2.77363 93.5562 2.29369C93.5562 1.81376 93.7165 1.44123 94.0362 1.17356C94.3695 0.893954 94.8162 0.75415 95.3754 0.75415ZM96.9345 5.69159V14.3875C96.9345 14.9476 97.0283 15.3278 97.215 15.5273C97.4145 15.7276 97.7478 15.8273 98.2141 15.8273V16.2467C97.8412 16.2285 97.468 16.2152 97.0948 16.2067C96.582 16.1799 96.0687 16.1665 95.5552 16.1666C95.0361 16.1666 94.5093 16.1803 93.9765 16.2067C93.5766 16.2155 93.1767 16.2288 92.7771 16.2467V15.8273C93.2434 15.8273 93.5699 15.7276 93.7566 15.5273C93.956 15.3278 94.0566 14.9476 94.0566 14.3875V8.09041C94.0566 7.49113 93.9629 7.05041 93.7762 6.77166C93.6031 6.47841 93.2698 6.33179 92.7771 6.33179V5.91153C93.2033 5.95159 93.6168 5.9712 94.0166 5.9712C94.5758 5.9712 95.0958 5.95159 95.5757 5.91153C96.0684 5.85868 96.5219 5.78536 96.9345 5.69159Z" fill="black"/>
<path fill-rule="evenodd" clip-rule="evenodd" d="M102.56 7.52618V5.69169C102.148 5.78546 101.694 5.85877 101.202 5.91162C100.708 5.95169 100.188 5.97129 99.6416 5.97129C99.2418 5.97129 98.8292 5.95169 98.4021 5.91162V6.33188C98.882 6.33188 99.2153 6.47851 99.402 6.77175C99.5887 7.05136 99.6816 7.49123 99.6816 8.09051V18.0864C99.6816 18.6192 99.5887 18.979 99.402 19.1657C99.229 19.3523 98.9221 19.4453 98.4822 19.4453V19.8655L99.5418 19.8059C100.028 19.7923 100.515 19.7855 101.001 19.7854C101.681 19.7854 102.321 19.7922 102.92 19.805C103.533 19.8323 104.013 19.8519 104.36 19.8647V19.4453C103.8 19.4453 103.36 19.3387 103.04 19.1256C102.721 18.9261 102.56 18.5127 102.56 17.8861V15.8828C102.736 16.0295 102.942 16.1505 103.18 16.2468C103.606 16.4344 104.079 16.5273 104.599 16.5273C105.306 16.5273 105.939 16.4003 106.499 16.1471C107.068 15.8967 107.569 15.5128 107.958 15.0278C108.371 14.5215 108.684 13.9017 108.898 13.1686C109.124 12.4355 109.238 11.583 109.238 10.6095C109.238 9.50388 109.077 8.58408 108.758 7.85097C108.438 7.10421 108.011 6.55182 107.478 6.19208C106.946 5.8189 106.309 5.62294 105.659 5.63202C104.886 5.63202 104.206 5.83149 103.62 6.23129C103.159 6.54244 102.806 6.97379 102.56 7.52703V7.52618ZM102.56 8.21326V15.46C102.671 15.5913 102.805 15.7004 102.96 15.7874C103.213 15.9203 103.5 15.9868 103.82 15.9868C104.42 15.9868 104.893 15.7874 105.24 15.3876C105.586 14.9741 105.832 14.4013 105.979 13.6681C106.139 12.9222 106.219 12.0357 106.219 11.0093C106.219 9.86362 106.146 8.96343 105.999 8.31044C105.853 7.65746 105.652 7.19116 105.399 6.91156C105.146 6.6311 104.84 6.49129 104.479 6.49129C104 6.49129 103.56 6.67884 103.161 7.05136C102.86 7.3412 102.659 7.72906 102.56 8.21326Z" fill="black"/>
<path d="M113.828 5.63191C114.388 5.63191 114.874 5.70522 115.287 5.85184C115.713 5.98482 116.02 6.11866 116.207 6.25164C116.66 6.55853 116.94 6.3582 117.047 5.65151H117.466C117.44 6.02489 117.419 6.48522 117.406 7.03079C117.393 7.56443 117.386 8.27709 117.386 9.17046H116.966C116.898 8.67063 116.77 8.18071 116.586 7.71105C116.417 7.25525 116.135 6.84951 115.767 6.53125C115.42 6.22437 114.967 6.07092 114.407 6.07092C114.021 6.07092 113.695 6.18515 113.428 6.41191C113.161 6.62502 113.028 6.93787 113.028 7.35132C113.028 7.75112 113.148 8.10404 113.388 8.41092C113.628 8.70417 113.934 8.9906 114.308 9.2702C114.694 9.53702 115.094 9.82345 115.507 10.1295C115.947 10.4628 116.347 10.7961 116.706 11.1294C117.051 11.4309 117.342 11.7893 117.566 12.189C117.78 12.5752 117.886 13.0347 117.886 13.5683C117.886 14.1676 117.712 14.6935 117.366 15.1471C117.019 15.5869 116.56 15.9271 115.987 16.1666C115.427 16.407 114.8 16.5272 114.108 16.5272C113.745 16.5313 113.382 16.4909 113.028 16.407C112.751 16.3379 112.483 16.2373 112.228 16.1069C112.055 16.0268 111.888 15.9535 111.729 15.887C111.593 15.8122 111.453 15.7456 111.309 15.6875C111.176 15.6474 111.055 15.6935 110.949 15.8273C110.856 15.9603 110.783 16.147 110.729 16.3865H110.31C110.336 15.9603 110.356 15.4403 110.369 14.8274C110.383 14.2145 110.39 13.4012 110.39 12.3893H110.809C110.889 13.1088 111.036 13.7482 111.249 14.3074C111.462 14.8547 111.749 15.2877 112.108 15.6074C112.482 15.9143 112.948 16.0677 113.508 16.0677C113.735 16.0677 113.955 16.0208 114.168 15.9271C114.381 15.8333 114.554 15.6798 114.688 15.4667C114.834 15.2536 114.908 14.9808 114.908 14.6484C114.908 14.061 114.714 13.5743 114.327 13.1881C113.955 12.8019 113.475 12.3817 112.888 11.929C112.462 11.5821 112.055 11.2428 111.669 10.9095C111.311 10.5818 111.001 10.205 110.749 9.7902C110.506 9.3644 110.382 8.88089 110.39 8.39046C110.39 7.79119 110.549 7.28482 110.869 6.87138C111.195 6.45363 111.631 6.13511 112.129 5.95158C112.669 5.73699 113.246 5.62846 113.828 5.63191ZM138.644 5.85184C138.297 5.70522 137.844 5.63191 137.284 5.63191C136.657 5.62554 136.038 5.77679 135.485 6.07178C134.939 6.35138 134.506 6.8245 134.185 7.49112V5.69243C133.773 5.78535 133.319 5.85866 132.826 5.91151C132.346 5.95158 131.826 5.97119 131.267 5.97119C130.867 5.97119 130.454 5.95158 130.028 5.91151V6.33178C130.521 6.33178 130.854 6.4784 131.027 6.77164C131.214 7.05125 131.306 7.49112 131.306 8.0904V14.3875C131.306 14.9476 131.207 15.3278 131.007 15.5273C130.821 15.7276 130.494 15.8273 130.028 15.8273V16.2467C130.427 16.2288 130.827 16.2155 131.227 16.2067C131.747 16.1804 132.266 16.167 132.786 16.1666C133.253 16.1666 133.706 16.1802 134.145 16.2067C134.599 16.2203 134.932 16.2339 135.145 16.2467V15.8273C134.799 15.8273 134.552 15.7276 134.405 15.5273C134.259 15.3278 134.185 14.9476 134.185 14.3875V8.83033C134.185 8.39046 134.272 7.99748 134.445 7.65053C134.632 7.29079 134.871 7.01119 135.165 6.81171C135.446 6.61548 135.781 6.51072 136.125 6.51164C136.431 6.51164 136.657 6.58496 136.804 6.73158C136.964 6.86456 137.071 7.05807 137.125 7.31125C137.177 7.55079 137.204 7.83722 137.204 8.17053V14.3875C137.204 14.9476 137.13 15.3278 136.984 15.5273C136.851 15.7276 136.605 15.8273 136.245 15.8273V16.2467C136.484 16.2339 136.837 16.2203 137.304 16.2067C138.25 16.1527 139.198 16.1527 140.143 16.2067C140.636 16.2203 141.002 16.2339 141.242 16.2467V15.8273C140.816 15.8273 140.516 15.7276 140.343 15.5273C140.17 15.3278 140.083 14.9476 140.083 14.3875V8.91899L140.082 8.85676L140.078 8.65473C140.109 8.32057 140.198 7.99446 140.343 7.69145C140.529 7.33086 140.769 7.04443 141.062 6.83132C141.355 6.6182 141.676 6.51164 142.022 6.51164C142.368 6.51164 142.622 6.58496 142.781 6.73158C142.954 6.86456 143.068 7.05807 143.122 7.31125C143.188 7.55079 143.221 7.83722 143.221 8.17053V14.3875C143.221 14.9476 143.148 15.3278 143.001 15.5273C142.868 15.7276 142.622 15.8273 142.261 15.8273V16.2467C142.502 16.2339 142.855 16.2203 143.321 16.2067C143.794 16.1798 144.267 16.1665 144.74 16.1666C145.234 16.1666 145.734 16.1802 146.24 16.2067C146.746 16.2203 147.126 16.2339 147.38 16.2467V15.8273C146.913 15.8273 146.58 15.7276 146.38 15.5273C146.193 15.3278 146.1 14.9476 146.1 14.3875V9.0102C146.1 8.34358 146.053 7.81079 145.96 7.41099C145.866 6.99755 145.714 6.66509 145.5 6.41191C145.287 6.17151 145.007 5.98568 144.66 5.85184C144.314 5.70522 143.861 5.63191 143.301 5.63191C142.622 5.63191 141.982 5.77171 141.383 6.05132C140.808 6.32581 140.343 6.84922 139.985 7.62155C139.973 7.55098 139.959 7.48077 139.943 7.41099C139.85 6.99755 139.696 6.66509 139.483 6.41191C139.27 6.17151 138.99 5.98568 138.644 5.85184ZM128.459 14.0678V5.69158C128.046 5.78535 127.593 5.85866 127.1 5.91151C126.621 5.95158 126.101 5.97119 125.54 5.97119C125.141 5.97119 124.728 5.95158 124.301 5.91151V6.33178C124.795 6.33178 125.128 6.4784 125.301 6.77164C125.488 7.05125 125.581 7.49112 125.581 8.0904V13.3279C125.581 13.7678 125.488 14.1676 125.301 14.5273C125.143 14.8567 124.901 15.1393 124.601 15.3474C124.321 15.5475 123.985 15.6526 123.641 15.6474C123.309 15.6474 123.056 15.5801 122.882 15.4471C122.702 15.2899 122.576 15.0803 122.522 14.8478C122.465 14.5581 122.438 14.2633 122.442 13.9681V5.69158C122.029 5.78535 121.576 5.85866 121.083 5.91151C120.603 5.95158 120.083 5.97119 119.524 5.97119C119.124 5.97119 118.711 5.95158 118.284 5.91151V6.33178C118.777 6.33178 119.11 6.4784 119.283 6.77164C119.47 7.05125 119.563 7.49112 119.563 8.0904V13.148C119.563 13.801 119.61 14.3347 119.704 14.7473C119.797 15.1607 119.957 15.494 120.183 15.7472C120.383 15.9739 120.656 16.1606 121.003 16.3073C121.349 16.453 121.802 16.5272 122.362 16.5272C123.056 16.5272 123.681 16.3865 124.241 16.1069C124.814 15.8137 125.261 15.3337 125.581 14.668V16.4667C126.027 16.3567 126.482 16.2832 126.94 16.2467C127.42 16.2067 127.939 16.1871 128.499 16.1871C128.913 16.1871 129.325 16.2067 129.739 16.2467V15.8273C129.259 15.8273 128.926 15.6875 128.739 15.4071C128.552 15.1138 128.459 14.668 128.459 14.0687V14.0678Z" fill="black"/>
<path fill-rule="evenodd" clip-rule="evenodd" d="M89.7894 6.17136C89.0563 5.81162 88.203 5.63175 87.2304 5.63175C86.2841 5.63175 85.4376 5.81162 84.6917 6.17136C83.9586 6.5311 83.379 7.11077 82.9527 7.91037C82.5393 8.70998 82.3321 9.76959 82.3321 11.0892C82.3321 12.4088 82.5393 13.4676 82.9519 14.268C83.3781 15.054 83.9578 15.6268 84.6909 15.9866C85.4376 16.3463 86.2841 16.527 87.2304 16.527C88.203 16.527 89.0563 16.3463 89.7894 15.9866C90.5217 15.6268 91.0954 15.054 91.508 14.268C91.9214 13.4684 92.1277 12.4088 92.1277 11.0892C92.1277 9.76959 91.9214 8.71083 91.508 7.91037C91.0954 7.11077 90.5217 6.5311 89.7894 6.17136ZM85.8911 7.23096C86.2509 6.43136 86.6976 6.03155 87.2304 6.03155C87.7768 6.03155 88.2235 6.43136 88.5696 7.23096C88.9293 8.01693 89.1092 9.30329 89.1092 11.0892C89.1092 12.8751 88.9293 14.1615 88.5696 14.9474C88.2235 15.7334 87.7768 16.1272 87.2304 16.1272C86.6976 16.1272 86.2509 15.7334 85.8911 14.9474C85.5314 14.1615 85.3515 12.8751 85.3515 11.0892C85.3515 9.30329 85.5306 8.01693 85.8911 7.23096ZM75.8134 20.0051C74.9865 20.0051 74.2474 19.9318 73.5944 19.7851C72.9551 19.6521 72.4487 19.439 72.0753 19.1458C71.7156 18.8653 71.5357 18.5192 71.5357 18.1058C71.5357 17.6923 71.7216 17.3198 72.095 16.9865C72.4683 16.6668 73.0216 16.4137 73.7547 16.227L73.9337 16.5466C73.7048 16.7185 73.5144 16.9363 73.3745 17.186C73.2679 17.4264 73.2142 17.6727 73.2142 17.9259C73.2142 18.486 73.4674 18.9122 73.9746 19.2046C74.4946 19.5115 75.1936 19.6649 76.0734 19.6649C76.6727 19.6649 77.2063 19.5848 77.6726 19.4254C78.1525 19.2651 78.525 19.0247 78.7919 18.7059C79.0723 18.3854 79.2121 17.9924 79.2121 17.5261C79.2121 17.1263 79.0655 16.7862 78.7723 16.5066C78.479 16.2398 77.8925 16.1068 77.0128 16.1068H75.7733C75.2277 16.1068 74.747 16.0471 74.3344 15.9269C73.9337 15.8076 73.6208 15.62 73.3941 15.3668C73.1682 15.1009 73.0548 14.7676 73.0548 14.3678C73.0548 13.8077 73.2747 13.315 73.7146 12.8879C74.059 12.5537 74.5347 12.2358 75.1416 11.9348C74.7426 11.8852 74.3507 11.7894 73.9738 11.6493C73.3745 11.4225 72.9014 11.0756 72.5553 10.6093C72.2083 10.143 72.0353 9.54369 72.0353 8.81057C72.0353 8.07746 72.2083 7.47732 72.5553 7.01103C72.9014 6.5311 73.3745 6.18414 73.9746 5.97103C74.5739 5.74513 75.2533 5.63175 76.0129 5.63175C76.7732 5.63175 77.4527 5.74513 78.0519 5.97188C78.4475 6.11169 78.7868 6.31031 79.0723 6.56605C79.242 6.32139 79.4483 6.10316 79.6912 5.91136C80.1447 5.56526 80.6315 5.39136 81.1506 5.39136C81.5768 5.39136 81.8974 5.51155 82.1105 5.75195C82.3372 5.97785 82.4506 6.27791 82.4506 6.65129C82.4506 7.0511 82.3432 7.35031 82.1301 7.55064C81.917 7.73818 81.6774 7.8311 81.4106 7.8311C81.176 7.82799 80.9498 7.74295 80.7713 7.5907C80.5837 7.43044 80.478 7.1909 80.4516 6.87123C80.4286 6.5848 80.5087 6.23018 80.692 5.80565C80.3033 5.97103 80.0032 6.15942 79.7918 6.37169C79.6324 6.52535 79.4932 6.69865 79.3775 6.88742C79.4099 6.92749 79.4414 6.96926 79.4713 7.01103C79.8182 7.47732 79.9913 8.0766 79.9913 8.80972C79.9913 9.54283 79.8182 10.143 79.4713 10.6093C79.1252 11.0756 78.6521 11.4225 78.0519 11.6493C77.4527 11.8752 76.7732 11.9885 76.0129 11.9885C75.8991 11.9887 75.7855 11.9861 75.6719 11.9809C75.492 12.1028 75.3189 12.2323 75.1536 12.3687C75.0509 12.4491 74.9684 12.5524 74.9129 12.6704C74.8574 12.7884 74.8303 12.9178 74.8339 13.0481C74.8339 13.4744 75.1007 13.6875 75.6335 13.6875H77.8124C78.5455 13.6875 79.1985 13.7744 79.7713 13.9475C80.3578 14.1214 80.8173 14.4078 81.1506 14.8076C81.4976 15.1938 81.6706 15.7001 81.6706 16.3267C81.6706 16.9797 81.4575 17.5858 81.0313 18.1458C80.6178 18.7059 79.9785 19.1517 79.1115 19.4851C78.2454 19.832 77.1458 20.0051 75.8134 20.0051ZM76.0129 11.6288C76.3734 11.6288 76.6522 11.4293 76.8525 11.0295C77.0528 10.6161 77.1526 9.87614 77.1526 8.81057C77.1526 7.74414 77.0528 7.01103 76.8525 6.61123C76.653 6.19778 76.3734 5.99149 76.0137 5.99149C75.6668 5.99149 75.3871 6.19778 75.174 6.61123C74.9737 7.01103 74.874 7.74414 74.874 8.81057C74.874 9.87614 74.9737 10.6161 75.174 11.0295C75.3871 11.4293 75.6668 11.6288 76.0129 11.6288ZM68.9477 6.17136C68.2146 5.81162 67.3621 5.63175 66.3894 5.63175C65.4432 5.63175 64.5967 5.81162 63.8508 6.17136C63.1177 6.5311 62.538 7.11077 62.1118 7.91037C61.6984 8.70998 61.4912 9.76959 61.4912 11.0892C61.4912 12.4088 61.6984 13.4676 62.1109 14.268C62.5372 15.054 63.1168 15.6268 63.85 15.9866C64.5967 16.3463 65.4432 16.527 66.3894 16.527C67.3621 16.527 68.2154 16.3463 68.9477 15.9866C69.6808 15.6268 70.2536 15.054 70.6671 14.268C71.0805 13.4684 71.2868 12.4088 71.2868 11.0892C71.2868 9.76959 71.0805 8.71083 70.6671 7.91037C70.2545 7.11077 69.6808 6.5311 68.9477 6.17136ZM65.0494 7.23096C65.41 6.43136 65.8558 6.03155 66.3894 6.03155C66.935 6.03155 67.3817 6.43136 67.7278 7.23096C68.0884 8.01693 68.2683 9.30329 68.2683 11.0892C68.2683 12.8751 68.0884 14.1615 67.7287 14.9474C67.3817 15.7334 66.9359 16.1272 66.3894 16.1272C65.8558 16.1272 65.4091 15.7334 65.0494 14.9474C64.6896 14.1615 64.5098 12.8751 64.5098 11.0892C64.5098 9.30329 64.6896 8.01693 65.0494 7.23096Z" fill="black"/>
<path d="M56.1078 2.09351V2.49416C55.6551 2.50695 55.3082 2.5598 55.0686 2.65357C54.959 2.69069 54.8599 2.75369 54.7798 2.83724C54.6996 2.92078 54.6408 3.02241 54.6083 3.13351C54.529 3.35941 54.489 3.72 54.489 4.21272V14.3681C54.489 14.7807 54.5154 15.0875 54.5691 15.2879C54.6356 15.4873 54.7558 15.6203 54.9288 15.6877C55.1155 15.7542 55.3892 15.7874 55.748 15.7874H56.7284C57.1802 15.7874 57.6073 15.6809 58.0071 15.4677C58.4077 15.2546 58.7666 14.9546 59.0863 14.5675C59.4235 14.1377 59.6933 13.6591 59.8867 13.1482C60.0998 12.6026 60.2593 11.9957 60.3658 11.329H60.8261C60.7861 11.7826 60.7665 12.369 60.7665 13.0885C60.7665 13.3954 60.7724 13.8412 60.7861 14.4277C60.7997 15.0142 60.8389 15.6212 60.9054 16.2469C60.1397 16.2186 59.3735 16.2053 58.6072 16.2068C57.7547 16.194 56.9943 16.1872 56.3277 16.1872H55.049C54.529 16.1872 53.969 16.194 53.3697 16.2068C52.7696 16.2068 52.1635 16.2136 51.5505 16.2273C50.9368 16.2273 50.3571 16.2341 49.8115 16.2469V15.8471C50.2378 15.8207 50.5574 15.7669 50.7705 15.6877C50.9837 15.6075 51.1235 15.4473 51.1908 15.2077C51.2701 14.9673 51.3101 14.6076 51.3101 14.1277V4.21272C51.3101 3.71915 51.2701 3.36026 51.1908 3.13351C51.1646 3.02261 51.1103 2.92029 51.0333 2.83628C50.9563 2.75226 50.8591 2.68937 50.7509 2.65357C50.5378 2.5598 50.2241 2.50695 49.8115 2.49331V2.09351C50.8639 2.1325 51.9168 2.15239 52.9699 2.15318C53.5564 2.15318 54.1292 2.14721 54.6884 2.13357C55.2621 2.11993 55.7353 2.10715 56.1078 2.09351Z" fill="black"/>
<path fill-rule="evenodd" clip-rule="evenodd" d="M145.349 32.7666C145.321 32.6234 145.34 32.4367 145.407 32.2065L148.223 22.0051C147.772 22.19 147.305 22.3341 146.829 22.4356C146.34 22.5319 145.78 22.5839 145.148 22.5942L145.047 22.8959C145.517 22.8959 145.809 22.9727 145.924 23.1261C146.039 23.2796 146.053 23.5182 145.967 23.8439L145.3 26.3578C145.258 26.2365 145.186 26.1279 145.091 26.0424C144.928 25.8889 144.703 25.8122 144.415 25.8122C143.841 25.8122 143.309 25.9418 142.821 26.2001C142.329 26.4685 141.887 26.8185 141.513 27.235C141.12 27.657 140.786 28.1308 140.521 28.6432C140.261 29.1418 140.053 29.6668 139.903 30.2092C139.767 30.6764 139.695 31.1598 139.688 31.6464C139.688 32.1059 139.76 32.4844 139.903 32.7811C140.047 33.0683 140.244 33.284 140.492 33.4272C140.741 33.5619 141.019 33.6284 141.326 33.6284C141.795 33.6284 142.217 33.4903 142.59 33.2124C142.964 32.9251 143.313 32.4844 143.64 31.8902C143.776 31.6481 143.913 31.3762 144.05 31.0744L143.955 31.4308C143.869 31.7114 143.811 32.0002 143.783 32.2926C143.764 32.5415 143.783 32.7529 143.841 32.9251C143.955 33.394 144.31 33.6293 144.904 33.6293C145.124 33.6293 145.349 33.5858 145.579 33.4997C145.809 33.4136 146.024 33.2653 146.225 33.0538C146.437 32.8433 146.604 32.5424 146.728 32.1485L147.073 31.1H146.801L146.571 31.7462C146.398 32.2355 146.235 32.5654 146.082 32.7376C145.938 32.9013 145.79 32.9822 145.636 32.9822C145.473 32.9822 145.378 32.9106 145.349 32.7666ZM144.583 29.0669C144.474 29.4173 144.357 29.7506 144.229 30.0651C143.989 30.6789 143.735 31.2057 143.467 31.6464C143.208 32.0769 142.954 32.4119 142.705 32.6523C142.457 32.8816 142.236 32.9967 142.045 32.9967C141.862 32.9967 141.729 32.9106 141.642 32.7384C141.566 32.556 141.527 32.2832 141.527 31.9192C141.527 31.4018 141.584 30.875 141.7 30.3388C141.815 29.7932 141.972 29.2706 142.174 28.7728C142.359 28.3056 142.59 27.8579 142.863 27.4361C143.122 27.0338 143.395 26.7175 143.682 26.4874C143.979 26.2572 144.271 26.143 144.559 26.143C144.751 26.143 144.904 26.2103 145.019 26.3441C145.099 26.4311 145.161 26.5573 145.203 26.7243L144.583 29.0669Z" fill="black"/>
<path d="M135.788 33.4273H134.021L135.744 27.235C135.831 26.9478 135.859 26.7466 135.831 26.6315C135.802 26.5164 135.716 26.4593 135.572 26.4593C135.39 26.4593 135.222 26.5505 135.069 26.7321C134.916 26.9137 134.758 27.235 134.595 27.6954L134.35 28.3697H134.078L134.451 27.2921C134.586 26.9085 134.753 26.6127 134.954 26.4013C135.155 26.1814 135.376 26.028 135.615 25.9419C135.855 25.8558 136.099 25.8123 136.348 25.8123C136.655 25.8123 136.88 25.8745 137.023 25.9998C137.176 26.1243 137.273 26.2871 137.311 26.4883C137.359 26.7051 137.369 26.9288 137.339 27.1489C137.32 27.3791 137.282 27.6041 137.224 27.8241L136.993 28.7251L137.052 28.5717C137.32 27.8914 137.579 27.3501 137.828 26.9478C138.087 26.536 138.36 26.2436 138.647 26.0714C138.928 25.9003 139.252 25.8106 139.581 25.8123C139.925 25.8123 140.189 25.9129 140.371 26.114C140.563 26.3152 140.659 26.5641 140.659 26.8617C140.659 27.1003 140.601 27.3262 140.486 27.5368C140.375 27.7344 140.217 27.902 140.026 28.0253C139.845 28.1403 139.634 28.1975 139.394 28.1975C139.155 28.1975 138.963 28.1352 138.819 28.0108C138.685 27.8863 138.618 27.7039 138.618 27.4652C138.618 27.2538 138.666 27.0628 138.762 26.8898C138.854 26.7213 138.982 26.5745 139.135 26.4593C139.289 26.3348 139.457 26.2487 139.638 26.2001C139.618 26.1804 139.594 26.1658 139.567 26.1575C139.534 26.1474 139.5 26.1425 139.466 26.143C139.255 26.143 139.04 26.2198 138.819 26.3732C138.599 26.5164 138.369 26.7517 138.129 27.0773C137.89 27.403 137.646 27.8335 137.397 28.3697C137.116 29.0037 136.867 29.6512 136.649 30.3099C136.541 30.6287 136.432 30.9714 136.323 31.3388L135.788 33.4273Z" fill="black"/>
<path fill-rule="evenodd" clip-rule="evenodd" d="M130.419 31.2074L130.358 31.4308C130.267 31.7552 130.205 32.0869 130.171 32.4222C130.142 32.7291 130.19 32.9874 130.315 33.1979C130.506 33.4852 130.832 33.6293 131.292 33.6293C131.512 33.6293 131.732 33.5858 131.953 33.4997C132.182 33.4136 132.398 33.2653 132.599 33.0538C132.8 32.8339 132.968 32.527 133.102 32.1349L133.462 31.0864H133.188L132.973 31.7325C132.8 32.2304 132.633 32.5611 132.471 32.7239C132.308 32.8859 132.149 32.9678 131.996 32.9678C131.871 32.9678 131.79 32.9294 131.752 32.8527C131.722 32.7551 131.712 32.6524 131.723 32.5509C131.742 32.4291 131.77 32.3091 131.809 32.192L133.663 25.8122C133.375 25.8812 133.081 25.9293 132.786 25.9563C132.489 25.9853 132.169 26.004 131.823 26.0134L131.615 26.7823C131.607 26.5871 131.55 26.397 131.45 26.2291C131.375 26.0981 131.266 25.9901 131.134 25.9166C131.003 25.8432 130.853 25.8071 130.703 25.8122C130.281 25.8122 129.86 25.9418 129.438 26.2001C128.99 26.4819 128.588 26.8309 128.246 27.235C127.859 27.6756 127.522 28.1573 127.24 28.6714C126.957 29.1869 126.731 29.7314 126.565 30.2953C126.408 30.8027 126.326 31.3302 126.321 31.8613C126.321 32.3983 126.445 32.8288 126.694 33.1544C126.943 33.4707 127.326 33.6284 127.843 33.6284C128.207 33.6284 128.557 33.5236 128.893 33.313C129.237 33.1016 129.563 32.7521 129.87 32.2645C130.06 31.9704 130.242 31.6183 130.419 31.2074ZM129.18 32.666C128.959 32.8672 128.763 32.9678 128.591 32.9678C128.447 32.9678 128.337 32.8961 128.26 32.7521C128.193 32.5986 128.16 32.3455 128.16 31.9908C128.16 31.4828 128.217 30.9611 128.332 30.4249C128.447 29.8878 128.6 29.3712 128.792 28.8734C128.993 28.3747 129.213 27.9297 129.453 27.5367C129.692 27.1446 129.932 26.8326 130.171 26.6024C130.42 26.3723 130.655 26.258 130.876 26.258C131.105 26.258 131.268 26.3731 131.364 26.6024C131.459 26.8104 131.484 27.0892 131.438 27.4378L131.014 29.0081L131.062 28.7583C130.909 29.3712 130.726 29.9364 130.516 30.4538C130.332 30.9164 130.112 31.3632 129.855 31.7897C129.625 32.163 129.4 32.4554 129.18 32.666ZM124.389 32.2065C124.322 32.4367 124.303 32.6234 124.332 32.7666C124.36 32.9106 124.457 32.9822 124.619 32.9822C124.773 32.9822 124.921 32.9013 125.064 32.7384C125.218 32.5654 125.381 32.2355 125.553 31.7462L125.783 31.1H126.056L125.711 32.1485C125.587 32.5415 125.419 32.8433 125.208 33.0538C125.029 33.2496 124.808 33.4021 124.561 33.4997C124.346 33.5833 124.117 33.6272 123.886 33.6293C123.293 33.6293 122.938 33.394 122.823 32.9251C122.763 32.7201 122.743 32.5051 122.766 32.2926C122.785 32.0437 122.842 31.7556 122.938 31.4308L123.033 31.0744C122.896 31.3762 122.758 31.6481 122.622 31.8902C122.296 32.4844 121.947 32.9251 121.574 33.2116C121.209 33.4865 120.765 33.6334 120.308 33.6293C120.002 33.6293 119.725 33.5611 119.476 33.4281C119.219 33.2763 119.014 33.0509 118.887 32.7811C118.742 32.4844 118.671 32.1059 118.671 31.6464C118.671 31.2057 118.742 30.7258 118.887 30.2092C119.03 29.6824 119.236 29.1607 119.504 28.6432C119.769 28.131 120.102 27.6572 120.495 27.235C120.888 26.8036 121.324 26.4592 121.803 26.2001C122.294 25.9408 122.842 25.8075 123.398 25.8122C123.685 25.8122 123.91 25.8889 124.073 26.0424C124.167 26.1251 124.237 26.2299 124.283 26.3578L124.949 23.8439C125.036 23.5182 125.022 23.2787 124.907 23.1253C124.792 22.9718 124.499 22.8951 124.03 22.8951L124.131 22.5942C124.695 22.5909 125.257 22.5379 125.812 22.4356C126.288 22.3341 126.755 22.19 127.206 22.0051L124.389 32.2065ZM123.211 30.0651C123.339 29.7497 123.457 29.4173 123.565 29.0669L124.186 26.7243C124.156 26.5845 124.093 26.454 124.001 26.3441C123.945 26.2781 123.874 26.2257 123.795 26.1909C123.715 26.156 123.629 26.1396 123.542 26.143C123.255 26.143 122.962 26.258 122.666 26.4874C122.377 26.7175 122.105 27.0338 121.846 27.4361C121.573 27.8574 121.342 28.3049 121.157 28.7719C120.952 29.2791 120.794 29.8035 120.683 30.3388C120.569 30.858 120.511 31.3878 120.51 31.9192C120.51 32.2832 120.548 32.556 120.625 32.7376C120.711 32.9106 120.846 32.9967 121.027 32.9967C121.219 32.9967 121.439 32.8817 121.688 32.6515C121.938 32.4128 122.191 32.0769 122.45 31.6456C122.748 31.1416 123.003 30.6128 123.211 30.0651Z" fill="black"/>
<path d="M110.759 33.4273H112.526L112.692 32.7777L112.684 32.8246C112.866 32.1537 113.071 31.5075 113.302 30.8844C113.525 30.2897 113.774 29.7049 114.048 29.1317C114.307 28.5947 114.566 28.1258 114.825 27.7235C115.083 27.3211 115.332 27.01 115.572 26.7892C115.811 26.559 116.031 26.4448 116.232 26.4448C116.395 26.4448 116.496 26.5019 116.534 26.617C116.574 26.7476 116.579 26.8862 116.549 27.0193C116.52 27.175 116.481 27.3288 116.433 27.4797L115.127 31.4308C114.992 31.8332 114.915 32.1776 114.896 32.4648C114.877 32.7521 114.93 32.9874 115.054 33.169C115.151 33.313 115.284 33.423 115.457 33.4997C115.639 33.585 115.855 33.6293 116.104 33.6293C116.333 33.6293 116.563 33.5858 116.793 33.4997C117.033 33.423 117.253 33.2789 117.454 33.0684C117.664 32.8578 117.837 32.5509 117.971 32.1486L118.33 31.1001H118.057L117.827 31.7462C117.646 32.2449 117.473 32.5748 117.311 32.7376C117.157 32.9013 117.009 32.9823 116.865 32.9823C116.711 32.9823 116.616 32.9201 116.578 32.7947C116.539 32.6618 116.563 32.4648 116.649 32.2066L118.057 27.9818C118.182 27.6084 118.244 27.2589 118.244 26.9332C118.253 26.5982 118.163 26.3297 117.971 26.1285C117.789 25.918 117.463 25.8131 116.994 25.8131C116.64 25.8131 116.3 25.8898 115.974 26.0424C115.648 26.1959 115.332 26.4635 115.026 26.8471C114.719 27.2205 114.403 27.7286 114.077 28.3696C113.861 28.802 113.663 29.2431 113.483 29.6918L113.962 27.8241C114.02 27.5939 114.063 27.3637 114.092 27.1344C114.121 26.8957 114.111 26.6792 114.063 26.4874C114.017 26.2894 113.9 26.1153 113.733 25.9989C113.57 25.8745 113.331 25.8123 113.014 25.8123C112.631 25.8123 112.281 25.918 111.965 26.1285C111.649 26.3391 111.39 26.7269 111.189 27.2921L110.816 28.3696H111.089L111.333 27.6945C111.505 27.2256 111.663 26.9043 111.807 26.7321C111.961 26.5505 112.128 26.4593 112.31 26.4593C112.444 26.4593 112.526 26.4976 112.555 26.5744C112.592 26.6511 112.603 26.7466 112.583 26.8616C112.561 26.9877 112.533 27.1123 112.497 27.235L110.759 33.4273Z" fill="black"/>
<path fill-rule="evenodd" clip-rule="evenodd" d="M107.097 31.4308L107.157 31.2075C107.004 31.5744 106.82 31.9279 106.608 32.2645C106.301 32.7521 105.976 33.1025 105.63 33.313C105.295 33.5236 104.946 33.6285 104.582 33.6285C104.064 33.6285 103.682 33.4707 103.433 33.1545C103.183 32.8288 103.059 32.3984 103.059 31.8613C103.059 31.3635 103.14 30.8418 103.303 30.2953C103.469 29.7314 103.696 29.187 103.978 28.6714C104.26 28.1571 104.597 27.6754 104.984 27.235C105.326 26.831 105.729 26.4819 106.177 26.2001C106.598 25.9418 107.02 25.8123 107.441 25.8123C107.767 25.8123 108.016 25.9512 108.189 26.23C108.281 26.3723 108.336 26.5565 108.354 26.7824L108.562 26.0134C108.906 26.0041 109.228 25.9853 109.524 25.9563C109.831 25.9273 110.123 25.8796 110.401 25.8123L108.548 32.1929C108.509 32.3098 108.48 32.4299 108.461 32.5518C108.451 32.6533 108.46 32.756 108.49 32.8536C108.529 32.9303 108.61 32.9686 108.734 32.9686C108.888 32.9686 109.045 32.8877 109.208 32.7248C109.371 32.562 109.539 32.2304 109.711 31.7334L109.927 31.0864H110.2L109.841 32.1349C109.707 32.5279 109.539 32.834 109.338 33.0556C109.159 33.2509 108.938 33.403 108.692 33.5006C108.481 33.5849 108.257 33.6289 108.03 33.6302C107.571 33.6302 107.245 33.4861 107.053 33.1988C106.929 32.9883 106.881 32.73 106.91 32.4231C106.943 32.0878 107.006 31.7553 107.097 31.4308ZM105.329 32.9678C105.502 32.9678 105.698 32.8672 105.919 32.666C106.139 32.4555 106.364 32.1631 106.594 31.7897C106.823 31.4163 107.044 30.9713 107.254 30.4539C107.465 29.9365 107.647 29.3713 107.801 28.7575L107.752 29.0081L108.177 27.4387C108.222 27.0892 108.197 26.8105 108.103 26.6033C108.006 26.3732 107.843 26.2581 107.613 26.2581C107.393 26.2581 107.159 26.3732 106.91 26.6025C106.67 26.8326 106.431 27.1438 106.191 27.5368C105.952 27.9289 105.731 28.3747 105.53 28.8726C105.337 29.3771 105.183 29.8958 105.07 30.4241C104.958 30.9388 104.9 31.464 104.898 31.9909C104.898 32.3455 104.931 32.5995 104.999 32.7521C105.076 32.8962 105.185 32.9678 105.329 32.9678Z" fill="black"/>
<path d="M104.055 26.3007L104.098 26.0134H102.387L103.064 23.6573C102.78 23.727 102.492 23.7752 102.202 23.8013C101.905 23.8294 101.584 23.8491 101.239 23.8584L100.621 26.0134H99.3136L99.242 26.3007H100.539L99.0689 31.4308C98.9445 31.8519 98.9018 32.2304 98.9402 32.5654C98.9879 32.8911 99.1218 33.1502 99.3426 33.3412C99.5719 33.533 99.9026 33.6293 100.334 33.6293C100.822 33.6293 101.244 33.4997 101.598 33.2406C101.953 32.9823 102.231 32.5561 102.432 31.9619L102.719 31.1001H102.446L102.231 31.6891C102.058 32.1682 101.867 32.5032 101.655 32.695C101.454 32.8868 101.253 32.9823 101.052 32.9823C100.973 32.9849 100.894 32.9694 100.822 32.9369C100.75 32.9044 100.686 32.8557 100.636 32.7948C100.539 32.6712 100.53 32.4751 100.607 32.2066L102.304 26.3007H104.055ZM99.2965 23.1543C99.2011 23.4032 99.0715 23.7681 98.9087 24.2463C98.7552 24.7152 98.6026 25.3289 98.4492 26.0851H98.1619C98.19 25.9512 98.2096 25.8123 98.219 25.6691C98.2374 25.5406 98.2471 25.411 98.248 25.2812C98.248 24.907 98.1713 24.5822 98.0178 24.3043C97.8705 24.0128 97.6339 23.776 97.3427 23.6283C97.046 23.4561 96.6624 23.37 96.1936 23.37C95.6855 23.37 95.2542 23.5038 94.9004 23.7723C94.5458 24.0306 94.3685 24.4475 94.3685 25.022C94.3685 25.3767 94.4494 25.7125 94.6123 26.0279C94.7853 26.3348 95.001 26.6366 95.2593 26.9333C95.5278 27.2205 95.81 27.5129 96.1066 27.8096C96.4041 28.0969 96.682 28.3944 96.9403 28.7004C97.1986 29.0073 97.41 29.3329 97.5729 29.6773C97.745 30.0132 97.8311 30.3814 97.8311 30.7838C97.8311 31.2919 97.7067 31.7275 97.4578 32.0915C97.2149 32.4491 96.8959 32.7483 96.5235 32.9678C96.1331 33.191 95.712 33.3556 95.2738 33.4563C94.8519 33.5689 94.4173 33.6271 93.9806 33.6293C93.5492 33.6293 93.1904 33.5952 92.9031 33.5287C92.6576 33.4825 92.4203 33.4 92.199 33.2841C92.0109 33.1809 91.8239 33.0758 91.638 32.9687C91.5535 32.8977 91.4559 32.8438 91.3508 32.8101C91.2838 32.7765 91.2107 32.7567 91.1359 32.7521C91.0106 32.7521 90.9058 32.8144 90.8197 32.9397C90.7066 33.1268 90.6105 33.3237 90.5324 33.5279H90.2443C90.4816 32.9436 90.6787 32.3438 90.8342 31.7326C90.9484 31.2919 91.078 30.7412 91.222 30.0797H91.5093C91.4692 30.27 91.4357 30.4616 91.4087 30.6542C91.3797 30.846 91.3704 31.0378 91.3797 31.2296C91.4087 31.8997 91.6142 32.4171 91.9978 32.7811C92.3908 33.1451 92.9653 33.3267 93.7214 33.3267C94.3633 33.3267 94.8475 33.1929 95.1732 32.9252C95.4988 32.6473 95.6616 32.2449 95.6616 31.7181C95.6616 31.3157 95.5849 30.9509 95.4315 30.6261C95.2867 30.2883 95.0931 29.9735 94.8569 29.6918C94.6134 29.4003 94.3595 29.1177 94.0957 28.8445C93.8313 28.5712 93.5771 28.2883 93.3336 27.9963C93.0984 27.7061 92.9005 27.3877 92.7445 27.0483C92.5877 26.6855 92.5095 26.2936 92.5152 25.8984C92.5152 25.4201 92.6158 25.0033 92.817 24.6487C93.0196 24.3028 93.2937 24.004 93.6209 23.7723C93.9564 23.5328 94.3307 23.3528 94.7273 23.2404C95.1132 23.1186 95.5153 23.0556 95.9199 23.0537C96.4374 23.0537 96.8636 23.1159 97.1986 23.2413C97.5345 23.3649 97.8218 23.514 98.0613 23.6862L98.3341 23.8584C98.4202 23.8968 98.4875 23.9155 98.5353 23.9155C98.6691 23.9155 98.8277 23.6624 99.0093 23.1543H99.2965Z" fill="black"/>
<path fill-rule="evenodd" clip-rule="evenodd" d="M85.4271 32.7666C85.3981 32.6234 85.4177 32.4367 85.485 32.2065L88.3007 22.0051C87.8499 22.19 87.3835 22.3341 86.9069 22.4356C86.4185 22.5319 85.8584 22.5839 85.2259 22.5942L85.1253 22.8959C85.5941 22.8959 85.8874 22.9727 86.0016 23.1261C86.1167 23.2796 86.1312 23.5182 86.0451 23.8439L85.3785 26.3578C85.3366 26.2365 85.2644 26.1279 85.1688 26.0424C85.0059 25.8889 84.7809 25.8122 84.4936 25.8122C83.9182 25.8122 83.3871 25.9418 82.8987 26.2001C82.4073 26.4685 81.9651 26.8184 81.591 27.235C81.1979 27.657 80.8643 28.1308 80.5996 28.6432C80.3386 29.1418 80.1315 29.6668 79.9815 30.2092C79.8451 30.6763 79.7726 31.1598 79.7659 31.6464C79.7659 32.1059 79.8383 32.4844 79.9815 32.7811C80.1256 33.0683 80.3217 33.284 80.5706 33.4272C80.8195 33.5619 81.0974 33.6284 81.4043 33.6284C81.8732 33.6284 82.2951 33.4903 82.6685 33.2124C83.0419 32.9251 83.3914 32.4844 83.717 31.8902C83.8534 31.6481 83.9907 31.3762 84.1279 31.0744L84.0341 31.4308C83.947 31.7113 83.889 32.0001 83.8611 32.2926C83.8382 32.5051 83.8576 32.7201 83.9182 32.9251C84.0333 33.394 84.3871 33.6293 84.9821 33.6293C85.202 33.6293 85.4271 33.5858 85.6572 33.4997C85.8874 33.4136 86.1022 33.2653 86.3034 33.0538C86.5148 32.8433 86.6819 32.5424 86.8063 32.1485L87.1516 31.1H86.8788L86.6486 31.7462C86.4764 32.2355 86.3136 32.5654 86.1602 32.7376C86.0161 32.9013 85.8678 32.9822 85.7143 32.9822C85.5524 32.9822 85.456 32.9106 85.4271 32.7666ZM84.6598 29.0669C84.5524 29.4173 84.4348 29.7506 84.3061 30.0651C84.0674 30.6789 83.8133 31.2057 83.5448 31.6464C83.2865 32.0769 83.0325 32.4119 82.7836 32.6523C82.5347 32.8816 82.3147 32.9967 82.1221 32.9967C81.9405 32.9967 81.8067 32.9106 81.7206 32.7384C81.6438 32.556 81.6055 32.2832 81.6055 31.9192C81.6055 31.4018 81.6626 30.875 81.7777 30.3388C81.8928 29.7932 82.0505 29.2706 82.2516 28.7728C82.437 28.3055 82.6683 27.8577 82.9421 27.4361C83.2004 27.0338 83.4732 26.7175 83.7605 26.4874C84.0572 26.2572 84.3495 26.143 84.6368 26.143C84.8286 26.143 84.9821 26.2103 85.0972 26.3441C85.1773 26.4311 85.2387 26.5573 85.2813 26.7243L84.6598 29.0669Z" fill="black"/>
<path d="M73.6207 33.4273H71.8535L73.5925 27.235C73.6309 27.1012 73.659 26.9767 73.6778 26.8616C73.6991 26.7653 73.6893 26.6647 73.6496 26.5744C73.6207 26.4976 73.5388 26.4593 73.405 26.4593C73.2234 26.4593 73.0555 26.5505 72.902 26.7321C72.7588 26.9043 72.6003 27.2256 72.4281 27.6953L72.1843 28.3696H71.9115L72.2849 27.2921C72.486 26.7269 72.7452 26.3391 73.0606 26.1285C73.376 25.918 73.7255 25.8131 74.1091 25.8131C74.4254 25.8131 74.6649 25.8745 74.8277 25.9989C74.9947 26.1152 75.1126 26.2892 75.1585 26.4874C75.2062 26.6792 75.2156 26.8949 75.1875 27.1344C75.1582 27.3667 75.1149 27.597 75.0579 27.8241L74.5788 29.6926C74.7817 29.1905 74.9795 28.7507 75.173 28.3696C75.4986 27.7286 75.814 27.2205 76.1209 26.8471C76.4278 26.4635 76.7432 26.1959 77.0689 26.0424C77.3954 25.889 77.7346 25.8123 78.0893 25.8123C78.5581 25.8123 78.8846 25.918 79.0662 26.1285C79.258 26.3297 79.3492 26.5974 79.339 26.9332C79.339 27.2589 79.2776 27.6084 79.1523 27.9818L77.7449 32.2066C77.6579 32.4648 77.634 32.6618 77.6724 32.7947C77.7108 32.9201 77.8071 32.9823 77.9605 32.9823C78.1037 32.9823 78.2521 32.9013 78.4055 32.7385C78.5683 32.5748 78.7405 32.2441 78.923 31.7462L79.1531 31.1001H79.4259L79.0662 32.1486C78.9323 32.5509 78.7593 32.8578 78.5496 33.0692C78.369 33.2664 78.1414 33.4145 77.8881 33.4997C77.6679 33.5842 77.4343 33.6281 77.1984 33.6293C76.9495 33.6293 76.7338 33.5858 76.5523 33.4997C76.3792 33.423 76.2454 33.3122 76.1499 33.169C76.0255 32.9874 75.9726 32.7521 75.9914 32.4648C76.011 32.1776 76.0877 31.8332 76.2215 31.4308L77.5292 27.4797C77.5769 27.3262 77.6153 27.1728 77.6443 27.0193C77.6744 26.8862 77.6694 26.7476 77.6298 26.617C77.5914 26.5019 77.4908 26.4448 77.328 26.4448C77.1268 26.4448 76.906 26.5599 76.6674 26.7892C76.4278 27.01 76.178 27.3211 75.9197 27.7235C75.633 28.1768 75.374 28.6471 75.144 29.1317C74.8857 29.6688 74.6359 30.2519 74.3964 30.8844C74.1662 31.5067 73.9616 32.1537 73.7792 32.8246L73.7877 32.7777L73.6207 33.4273Z" fill="black"/>
<path fill-rule="evenodd" clip-rule="evenodd" d="M68.2521 31.2074L68.1924 31.4308C68.1019 31.7553 68.0392 32.087 68.0049 32.4222C67.9759 32.7291 68.0236 32.9874 68.1481 33.1979C68.3399 33.4852 68.6655 33.6293 69.1258 33.6293C69.3715 33.6275 69.6142 33.5756 69.8391 33.4766C70.064 33.3777 70.2662 33.2338 70.4335 33.0539C70.6347 32.8339 70.8018 32.527 70.9365 32.1349L71.2945 31.0864H71.0217L70.8069 31.7326C70.6338 32.2304 70.4659 32.5611 70.3039 32.724C70.1411 32.8859 69.9826 32.9678 69.83 32.9678C69.7047 32.9678 69.6237 32.9294 69.5853 32.8527C69.5553 32.7551 69.5455 32.6524 69.5563 32.5509C69.5759 32.4265 69.6041 32.3071 69.6433 32.192L71.4965 25.8122C71.2082 25.8812 70.9154 25.9293 70.6202 25.9563C70.3227 25.9853 70.0022 26.004 69.6569 26.0134L69.4489 26.7823C69.44 26.5871 69.3833 26.3971 69.2835 26.2291C69.2087 26.0983 69.0997 25.9903 68.9681 25.9169C68.8365 25.8434 68.6874 25.8072 68.5368 25.8122C68.1148 25.8122 67.6929 25.9418 67.2717 26.2001C66.8506 26.4592 66.4534 26.8036 66.0791 27.235C65.6921 27.6754 65.3548 28.1571 65.0732 28.6714C64.7907 29.1869 64.5643 29.7314 64.3981 30.2953C64.2414 30.8027 64.1592 31.3302 64.1543 31.8613C64.1543 32.3983 64.2788 32.8288 64.5277 33.1545C64.7766 33.4707 65.1602 33.6284 65.6768 33.6284C66.0408 33.6284 66.3911 33.5236 66.7253 33.313C67.0706 33.1016 67.3971 32.7521 67.7031 32.2645C67.8932 31.9704 68.0756 31.6183 68.2521 31.2074ZM67.0134 32.666C66.7935 32.8672 66.5966 32.9678 66.4244 32.9678C66.2803 32.9678 66.1704 32.8962 66.0936 32.7521C66.0272 32.5986 65.993 32.3455 65.993 31.9908C65.993 31.4828 66.051 30.9611 66.1661 30.4249C66.2803 29.8878 66.4338 29.3712 66.6256 28.8734C66.8268 28.3747 67.0467 27.9297 67.2862 27.5367C67.5258 27.1446 67.7653 26.8326 68.0049 26.6025C68.2538 26.3723 68.4882 26.2581 68.709 26.2581C68.9392 26.2581 69.1011 26.3731 69.1974 26.6025C69.2929 26.8105 69.3168 27.0892 69.2716 27.4379L68.8471 29.0081L68.8957 28.7583C68.7422 29.3712 68.5607 29.9364 68.3501 30.4539C68.1387 30.9705 67.9188 31.4163 67.6886 31.7897C67.4584 32.163 67.2334 32.4554 67.0134 32.666Z" fill="black"/>
<path d="M60.311 33.4273H58.5438L60.2675 27.235C60.3536 26.9478 60.3826 26.7466 60.3536 26.6315C60.3255 26.5164 60.2394 26.4593 60.0953 26.4593C59.9137 26.4593 59.7458 26.5505 59.5924 26.7321C59.4389 26.9137 59.2812 27.235 59.1184 27.6954L58.8737 28.3697H58.6009L58.9743 27.2921C59.109 26.9085 59.2761 26.6127 59.4773 26.4013C59.6784 26.1814 59.8992 26.028 60.1388 25.9419C60.3775 25.8558 60.6221 25.8123 60.8719 25.8123C61.1779 25.8123 61.403 25.8745 61.5462 25.9998C61.6986 26.1221 61.801 26.2958 61.8343 26.4883C61.8821 26.6895 61.8914 26.9094 61.8624 27.1489C61.8437 27.3791 61.8053 27.6041 61.7474 27.8241L61.5172 28.7251L61.5402 28.6629L61.5752 28.5717C61.8437 27.8914 62.102 27.3501 62.3509 26.9478C62.6101 26.536 62.8828 26.2436 63.1701 26.0714C63.4516 25.9003 63.775 25.8106 64.1044 25.8123C64.4488 25.8123 64.7122 25.9129 64.8946 26.114C65.0856 26.3152 65.1819 26.5641 65.1819 26.8617C65.1819 27.1003 65.124 27.3262 65.0089 27.5368C64.8974 27.7343 64.7397 27.9019 64.5494 28.0253C64.3595 28.1423 64.1399 28.2021 63.9169 28.1975C63.6782 28.1975 63.4864 28.1352 63.3423 28.0108C63.2085 27.8863 63.1411 27.7039 63.1411 27.4652C63.1411 27.2538 63.1889 27.0628 63.2852 26.8898C63.3807 26.7176 63.5051 26.5744 63.6586 26.4593C63.812 26.3348 63.9791 26.2487 64.1615 26.2001C64.1413 26.1805 64.1168 26.1659 64.0899 26.1575C64.0709 26.1511 64.0511 26.1468 64.0311 26.1447C64.0169 26.1434 64.0027 26.1428 63.9885 26.143C63.7788 26.143 63.5622 26.2198 63.3423 26.3732C63.1224 26.5164 62.8922 26.7517 62.6527 27.0773C62.414 27.403 62.1693 27.8335 61.9196 28.3697C61.6387 29.0036 61.3895 29.6512 61.1728 30.3099C61.0645 30.6278 60.9554 30.9714 60.8463 31.3388L60.311 33.4273Z" fill="black"/>
<path fill-rule="evenodd" clip-rule="evenodd" d="M57.6226 23.7871C57.1435 23.4418 56.3771 23.2696 55.3235 23.2696C54.9979 23.2696 54.6722 23.2747 54.3457 23.2841C54.0303 23.2935 53.6663 23.2986 53.2546 23.2986H52.536C52.2768 23.2884 52.033 23.2841 51.8028 23.2841C51.6113 23.2757 51.4197 23.266 51.2283 23.2551L51.1567 23.5424C51.5301 23.5424 51.7841 23.5901 51.9179 23.6865C52.062 23.7717 52.1285 23.9064 52.1191 24.0888C52.0998 24.3215 52.0613 24.5521 52.004 24.7785L50.1073 31.905C50.0221 32.2494 49.9257 32.5086 49.82 32.6808C49.7246 32.8455 49.571 32.9686 49.3895 33.026C49.2071 33.0831 48.9531 33.1215 48.6274 33.1402L48.5703 33.4275C48.7323 33.419 48.9292 33.4139 49.1585 33.4139C49.3887 33.4037 49.6333 33.3994 49.8916 33.3994C50.6147 33.3774 51.3384 33.3822 52.0611 33.4139C52.4541 33.4224 52.8139 33.4284 53.1395 33.4284C53.7618 33.4284 54.3508 33.3653 54.9066 33.2408C55.4189 33.1246 55.9089 32.926 56.3575 32.6526C56.7588 32.4136 57.0984 32.0836 57.3489 31.6894C57.5979 31.3058 57.7223 30.8565 57.7223 30.3391C57.7223 29.7543 57.4836 29.2513 57.0045 28.8302C56.5357 28.4082 55.7923 28.1593 54.7771 28.0826C55.4105 27.9916 56.026 27.8027 56.6013 27.5225C57.1384 27.2446 57.5595 26.9045 57.8664 26.5021C58.1753 26.1201 58.3427 25.6431 58.3403 25.1518C58.3403 24.5773 58.1025 24.1221 57.6226 23.7871ZM53.0363 28.2701L52.0756 31.905C52.0185 32.1437 51.9801 32.3551 51.9614 32.5367C51.9512 32.7191 51.9989 32.8581 52.1046 32.9544C52.2103 33.0499 52.4064 33.0976 52.6937 33.0976C53.3739 33.0976 53.9297 32.968 54.3602 32.7097C54.782 32.4617 55.1181 32.0909 55.3235 31.6467C55.5341 31.1864 55.6389 30.669 55.6389 30.0953C55.6389 29.7398 55.5767 29.4286 55.4522 29.161C55.3426 28.889 55.1456 28.6614 54.8921 28.5139C54.6339 28.3511 54.2886 28.2701 53.8573 28.2701H53.0363ZM53.1011 28.0255H53.7575C54.3031 28.0255 54.7677 27.8865 55.1504 27.6086C55.5434 27.3214 55.8409 26.948 56.0421 26.4885C56.2516 26.0333 56.3593 25.5379 56.3575 25.0368C56.3575 24.5577 56.2621 24.1894 56.0702 23.9303C55.8887 23.672 55.5673 23.5424 55.107 23.5424C54.7728 23.5424 54.5333 23.6097 54.3892 23.7436C54.246 23.868 54.1215 24.1408 54.0158 24.5619L53.1011 28.0255Z" fill="black"/>
</g>
<defs>
<clipPath id="clip0_100_105">
<rect width="148.328" height="33.2459" fill="white" transform="translate(0.541016 0.75415)"/>
</clipPath>
</defs>
</svg>
