<svg width="122" height="121" viewBox="0 0 122 121" fill="none" xmlns="http://www.w3.org/2000/svg">
<path d="M82.3115 99.3592C83.7873 100.835 83.7873 103.228 82.3115 104.703C80.8357 106.179 78.443 106.179 76.9672 104.703C75.4914 103.228 75.4914 100.835 76.9672 99.3592C78.443 97.8834 80.8357 97.8834 82.3115 99.3592Z" fill="black" fill-opacity="0.1"/>
<path d="M67.1953 114.475C68.6711 115.951 68.6711 118.344 67.1953 119.819C65.7195 121.295 63.3268 121.295 61.851 119.819C60.3752 118.344 60.3752 115.951 61.851 114.475C63.3268 112.999 65.7195 112.999 67.1953 114.475Z" fill="black" fill-opacity="0.1"/>
<path d="M96.3188 108.023C99.2703 110.974 99.2703 115.76 96.3188 118.711C93.3672 121.663 88.5817 121.663 85.6302 118.711C82.6786 115.76 82.6786 110.974 85.6302 108.023C88.5818 105.071 93.3672 105.071 96.3188 108.023Z" fill="black" fill-opacity="0.1"/>
<path d="M107.133 0C102.948 0 99.0065 1.84521 96.3236 5.06326L72.4226 33.7429C74.1839 34.553 75.8828 35.5097 77.4803 36.6496C81.9822 39.8639 85.287 44.0729 87.5612 48.7076L116.145 24.8845C119.363 22.2016 121.208 18.2602 121.208 14.0753C121.208 6.31427 114.894 0 107.133 0Z" fill="black" fill-opacity="0.1"/>
<path d="M73.0919 42.8051C63.4157 35.9041 49.9899 36.6717 41.1809 44.6208C35.6785 49.5881 18.9387 64.7004 3.25439 68.1104L0.0400391 68.8115C0.0400391 68.8115 0.279917 79.3625 3.47767 84.1208C9.74077 83.421 14.8109 82.1256 16.5519 80.3847C12.7028 84.9373 9.77492 88.2291 7.50667 90.6916C9.37218 93.1849 11.6695 95.5518 14.25 97.8344C23.5028 93.8976 31.7555 87.0939 34.4481 84.4008C29.0213 93.4456 24.6081 100.239 22.2877 103.738C27.4515 100.734 33.745 96.8287 39.635 92.4547C37.4332 94.6565 34.545 101.573 32.2089 109.473C34.8134 110.73 42.1366 113.362 42.1366 113.362C53.3813 112.506 72.9111 86.0163 79.4873 75.8824C86.5766 64.9625 83.7683 50.4295 73.0919 42.8051Z" fill="black" fill-opacity="0.1"/>
</svg>
