<svg width="28" height="28" viewBox="0 0 28 28" fill="none" xmlns="http://www.w3.org/2000/svg">
<path fill-rule="evenodd" clip-rule="evenodd" d="M10.0598 14.1958V13.1322C10.0598 12.7909 10.1553 12.4711 10.3208 12.1981H7.77573C7.26293 12.1981 6.84178 12.6193 6.84178 13.1322V14.1958H10.0598ZM12.8027 13.3371V13.1322C12.8027 12.6193 12.3816 12.1981 11.8688 12.1981C11.356 12.1981 10.9348 12.6193 10.9348 13.1322V13.3371H12.8027ZM17.4177 1.50232V23.7489H19.4927V1.50232C19.4927 0.931711 19.0259 0.464844 18.4553 0.464844C17.8846 0.464844 17.4177 0.931711 17.4177 1.50232ZM8.71023 21.1131C6.32673 21.1131 4.06885 20.045 2.53962 18.2272L4.35508 27.5118H9.74787L11.0403 23.7488H13.8011L14.8813 18.2243C13.3487 20.0471 11.1012 21.1131 8.71023 21.1131ZM15.3591 15.7816C14.2455 18.4669 11.6209 20.2381 8.71029 20.2381C5.80009 20.2381 3.17454 18.4667 2.06149 15.7817L1.75464 14.2121H6.84183V17.4159H10.0599V14.2121H15.666L15.3591 15.7816ZM26.2455 27.5352H10.6651L11.665 24.6239H25.2457L26.2455 27.5352Z" fill="#1587B8"/>
</svg>
