<svg width="24" height="24" viewBox="0 0 24 24" fill="none" xmlns="http://www.w3.org/2000/svg">
<g clip-path="url(#clip0_100_210)">
<path d="M0.855043 8.14853C1.21157 8.26759 1.83961 8.53267 2.43768 9.13075C3.03576 9.72883 3.30084 10.3568 3.4199 10.7134C3.50564 10.9738 3.75501 11.1957 4.08768 11.1959C4.42036 11.1957 4.66973 10.9738 4.75546 10.7134C4.87453 10.3569 5.13961 9.72883 5.73768 9.13075C6.33576 8.53267 6.96384 8.26759 7.32032 8.14853C7.58076 8.0628 7.80267 7.81342 7.80281 7.48075C7.80267 7.14808 7.58076 6.8987 7.32032 6.81297C6.96379 6.69391 6.33576 6.42883 5.73768 5.83075C5.13961 5.23267 4.87453 4.60469 4.75546 4.24811C4.66973 3.98767 4.42036 3.76577 4.08768 3.76562C3.75501 3.76577 3.50564 3.98767 3.4199 4.24811C3.30084 4.60464 3.03576 5.23267 2.43768 5.83075C1.83961 6.42883 1.21153 6.69391 0.855043 6.81297C0.594605 6.8987 0.372699 7.14808 0.372559 7.48075C0.372699 7.81342 0.594605 8.06275 0.855043 8.14853Z" fill="#1587B8"/>
<path d="M11.6775 7.48121C11.6775 7.86952 11.9923 8.18433 12.3806 8.18433H13.1838V8.98744C13.1838 9.37576 13.4986 9.69057 13.8869 9.69057C14.2752 9.69057 14.59 9.37576 14.59 8.98744V8.18433H15.3931C15.7814 8.18433 16.0963 7.86952 16.0963 7.48121C16.0963 7.0929 15.7814 6.77808 15.3931 6.77808H14.59V5.97498C14.59 5.58666 14.2752 5.27185 13.8869 5.27185C13.4986 5.27185 13.1838 5.58666 13.1838 5.97498V6.77808H12.3806C11.9923 6.77808 11.6775 7.0929 11.6775 7.48121Z" fill="#1587B8"/>
<path d="M8.61499 2.91248H9.4181V3.71559C9.4181 4.10391 9.73291 4.41872 10.1212 4.41872C10.5095 4.41872 10.8243 4.10391 10.8243 3.71559V2.91248H11.6275C12.0158 2.91248 12.3306 2.59767 12.3306 2.20936C12.3306 1.82105 12.0158 1.50623 11.6275 1.50623H10.8243V0.703125C10.8243 0.314812 10.5095 0 10.1212 0C9.73291 0 9.4181 0.314812 9.4181 0.703125V1.50623H8.61499C8.22668 1.50623 7.91187 1.82105 7.91187 2.20936C7.91187 2.59767 8.22668 2.91248 8.61499 2.91248Z" fill="#1587B8"/>
<path d="M12.1612 21.1989C12.1862 21.1958 12.8974 21.1028 13.5635 20.6538C13.5888 20.6368 13.6124 20.6186 13.6369 20.6009L14.9152 14.2094H15.3932C15.7815 14.2094 16.0963 13.8945 16.0963 13.5062C16.0963 13.1179 15.7815 12.8031 15.3932 12.8031H1.83691C1.4486 12.8031 1.13379 13.1179 1.13379 13.5062C1.13379 13.8945 1.4486 14.2094 1.83691 14.2094H2.3149L3.57724 20.5212C3.65009 20.4753 3.71866 20.4207 3.78152 20.3579L8.11793 16.0215C8.39248 15.7469 8.83769 15.7469 9.11229 16.0215C9.38688 16.2961 9.38688 16.7413 9.11229 17.0159L4.77588 21.3523C4.55257 21.5756 4.23804 21.7949 3.86098 21.9399L4.15995 23.4348C4.22566 23.7634 4.51423 24 4.84938 24H10.3913C10.325 23.8118 10.2844 23.6111 10.2739 23.402C10.2179 22.2813 11.0463 21.3155 12.1612 21.1989Z" fill="#1587B8"/>
<path d="M2.50818 20.6113C2.07004 20.4298 1.78691 20.0061 1.78691 19.5312C1.78691 19.3896 1.81344 19.252 1.86365 19.124L1.5103 17.3573L1.11908 17.7485C0.642881 18.2247 0.380615 18.8578 0.380615 19.5318C0.380615 20.5769 1.00452 21.5106 1.97001 21.9105C2.67201 22.2013 3.32877 22.1447 3.8609 21.94L3.57716 20.5213C3.26108 20.7207 2.86429 20.7587 2.50818 20.6113Z" fill="#1587B8"/>
<path d="M20.615 12.9516V0.703125C20.615 0.314813 20.3002 0 19.9119 0C19.5236 0 19.2087 0.314813 19.2087 0.703125V12.9516C19.4387 12.9199 19.6733 12.9031 19.9119 12.9031C20.1504 12.9031 20.385 12.9199 20.615 12.9516Z" fill="#1587B8"/>
<path d="M19.9119 14.3094C17.8631 14.3094 16.1963 15.9763 16.1963 18.0251C16.1963 22.1633 12.4095 22.5867 12.3107 22.5973C11.9378 22.6346 11.6597 22.9577 11.6784 23.332C11.6971 23.7062 12.0059 24.0001 12.3806 24.0001H17.6525C22.9474 24.0001 23.6275 20.0139 23.6275 18.025C23.6275 15.9762 21.9607 14.3094 19.9119 14.3094Z" fill="#1587B8"/>
</g>
<defs>
<clipPath id="clip0_100_210">
<rect width="24" height="24" fill="white"/>
</clipPath>
</defs>
</svg>
