<svg width="28" height="28" viewBox="0 0 28 28" fill="none" xmlns="http://www.w3.org/2000/svg">
<path d="M10.4501 14.7944H10.0287C9.63979 14.7944 9.32446 15.1097 9.32446 15.4987C9.32446 15.8876 9.63979 16.203 10.0287 16.203H18.0105C18.3995 16.203 18.7148 15.8876 18.7148 15.4987C18.7148 15.1097 18.3995 14.7944 18.0105 14.7944H17.5891C17.305 13.3521 16.1663 12.2131 14.7239 11.929V13.0337C14.7239 13.4227 14.4086 13.738 14.0196 13.738C13.6307 13.738 13.3153 13.4227 13.3153 13.0337V11.929C11.8729 12.2131 10.7343 13.3521 10.4501 14.7944Z" fill="#1587B8"/>
<path d="M17.6498 20.8662C16.8123 21.9553 15.4966 22.6587 14.0196 22.6587C12.5426 22.6587 11.2269 21.9553 10.3893 20.8662C9.03403 21.8481 8.15063 23.4432 8.15063 25.241C8.15063 25.63 8.46596 25.9453 8.85491 25.9453H19.1843C19.5732 25.9453 19.8885 25.63 19.8885 25.241C19.8885 23.4432 19.0051 21.8481 17.6498 20.8662Z" fill="#1587B8"/>
<path d="M14.0196 21.2502C15.7699 21.2502 17.1888 19.8313 17.1888 18.081V17.6115H10.8503V18.081C10.8503 19.8313 12.2693 21.2502 14.0196 21.2502Z" fill="#1587B8"/>
<path d="M14.7237 11.9288V11.6251C14.7237 11.2361 14.4084 10.9208 14.0195 10.9208C13.6305 10.9208 13.3152 11.2361 13.3152 11.6251V11.9288C13.5432 11.8839 13.7785 11.8598 14.0195 11.8598C14.2604 11.8598 14.4957 11.8839 14.7237 11.9288Z" fill="#1587B8"/>
<path d="M16.1794 7.28206H24.1611C24.5501 7.28206 24.8654 6.96673 24.8654 6.57779C24.8654 6.18884 24.5501 5.87351 24.1611 5.87351H23.7398C23.4556 4.43121 22.3169 3.29216 20.8745 3.00806V4.11283C20.8745 4.50177 20.5592 4.8171 20.1703 4.8171C19.7813 4.8171 19.466 4.50177 19.466 4.11283V3.00806C18.0236 3.29216 16.885 4.43121 16.6008 5.87351H16.1794C15.7904 5.87351 15.4751 6.18884 15.4751 6.57779C15.4751 6.96673 15.7904 7.28206 16.1794 7.28206Z" fill="#1587B8"/>
<path d="M20.1702 12.3293C21.9205 12.3293 23.3394 10.9104 23.3394 9.16007V8.69055H17.001V9.16007C17.001 10.9104 18.4199 12.3293 20.1702 12.3293Z" fill="#1587B8"/>
<path d="M23.8564 11.8711C23.0221 13.0025 21.6805 13.738 20.17 13.738C19.6348 13.738 19.1208 13.6453 18.643 13.4758C18.6441 13.4785 18.6455 13.4811 18.6467 13.4838C19.5017 13.7545 20.1231 14.5554 20.1231 15.4987C20.1231 16.461 19.4761 17.2745 18.5945 17.5287C18.5961 17.5561 18.5971 17.5836 18.5971 17.6115V18.081C18.5971 18.6253 18.5015 19.1475 18.3264 19.6321C18.3775 19.6602 18.4277 19.6906 18.476 19.7257C19.0678 20.1544 19.5791 20.6712 19.9982 21.2503H25.3347C25.7236 21.2503 26.039 20.935 26.039 20.546V16.0856C26.039 14.3477 25.1761 12.8076 23.8564 11.8711Z" fill="#1587B8"/>
<path d="M20.8744 3.00805V2.70427C20.8744 2.31533 20.559 2 20.1701 2C19.7811 2 19.4658 2.31533 19.4658 2.70427V3.00805C19.6938 2.96317 19.9291 2.93903 20.1701 2.93903C20.411 2.93903 20.6464 2.96317 20.8744 3.00805Z" fill="#1587B8"/>
<path d="M3.87786 7.28206H11.8596C12.2486 7.28206 12.5639 6.96673 12.5639 6.57779C12.5639 6.18884 12.2486 5.87351 11.8596 5.87351H11.4382C11.154 4.43121 10.0154 3.29216 8.57302 3.00806V4.11283C8.57302 4.50177 8.25769 4.8171 7.86874 4.8171C7.4798 4.8171 7.16447 4.50177 7.16447 4.11283V3.00806C5.72207 3.29216 4.58345 4.43121 4.29925 5.87351H3.87786C3.48891 5.87351 3.17358 6.18884 3.17358 6.57779C3.17358 6.96673 3.48891 7.28206 3.87786 7.28206Z" fill="#1587B8"/>
<path d="M11.0382 9.16007V8.69055H4.69971V9.16007C4.69971 10.9104 6.11863 12.3293 7.86894 12.3293C9.61925 12.3293 11.0382 10.9104 11.0382 9.16007Z" fill="#1587B8"/>
<path d="M9.56296 19.7257C9.61133 19.6906 9.66156 19.6602 9.7126 19.6321C9.53752 19.1475 9.44188 18.6252 9.44188 18.081V17.6114C9.44188 17.5836 9.44291 17.556 9.44451 17.5286C8.56285 17.2745 7.9159 16.461 7.9159 15.4987C7.9159 14.5554 8.53731 13.7545 9.39225 13.4838C9.39342 13.4811 9.39478 13.4784 9.39596 13.4758C8.91813 13.6453 8.4042 13.738 7.86895 13.738C6.35852 13.738 5.01683 13.0025 4.18255 11.8711C2.86283 12.8076 2 14.3477 2 16.0856V20.546C2 20.9349 2.31533 21.2502 2.70427 21.2502H8.04084C8.45988 20.6712 8.97123 20.1544 9.56296 19.7257Z" fill="#1587B8"/>
<path d="M8.5731 3.00805V2.70427C8.5731 2.31533 8.25777 2 7.86882 2C7.47988 2 7.16455 2.31533 7.16455 2.70427V3.00805C7.39255 2.96317 7.62787 2.93903 7.86882 2.93903C8.10978 2.93903 8.3451 2.96317 8.5731 3.00805Z" fill="#1587B8"/>
</svg>
