<svg width="24" height="24" viewBox="0 0 24 24" fill="none" xmlns="http://www.w3.org/2000/svg">
<g clip-path="url(#clip0_100_682)">
<path d="M17.25 18C18.2855 18 19.125 17.1605 19.125 16.125C19.125 15.0895 18.2855 14.25 17.25 14.25C16.2145 14.25 15.375 15.0895 15.375 16.125C15.375 17.1605 16.2145 18 17.25 18Z" fill="black"/>
<path d="M13.125 4.21875C12.4288 4.22219 11.7515 4.44574 11.19 4.85741C10.6286 5.26909 10.2117 5.8478 9.99902 6.51075C9.79217 6.48298 9.58372 6.46895 9.37502 6.46875C8.10741 6.47024 6.89214 6.97445 5.99581 7.87079C5.09947 8.76713 4.59526 9.98239 4.59377 11.25C4.59207 11.8763 4.71455 12.4968 4.95413 13.0755C5.1937 13.6543 5.54561 14.1797 5.98952 14.6216C5.80058 14.9945 5.70786 15.4087 5.71978 15.8265C5.7317 16.2444 5.84788 16.6526 6.05777 17.0141L16.32 6.75187C16.1504 6.03161 15.7427 5.38967 15.1628 4.92995C14.583 4.47024 13.865 4.21965 13.125 4.21875Z" fill="black"/>
<path d="M9.40385 18.0001C9.72532 18.4791 10.1459 18.8834 10.6372 19.1858C11.1285 19.4881 11.679 19.6813 12.2515 19.7525C12.824 19.8236 13.405 19.7709 13.9554 19.5979C14.5057 19.425 15.0125 19.1359 15.4413 18.7501C15.0722 18.4992 14.7599 18.1735 14.5246 17.7942C14.2894 17.4148 14.1364 16.9903 14.0756 16.5481C14.0148 16.1059 14.0476 15.6559 14.1718 15.2272C14.296 14.7984 14.5088 14.4006 14.7966 14.0593C15.0843 13.7181 15.4405 13.4411 15.8421 13.2463C16.2437 13.0514 16.6817 12.9431 17.1278 12.9283C17.5739 12.9135 18.0182 12.9926 18.4318 13.1604C18.8454 13.3282 19.2192 13.581 19.5288 13.9025C19.8564 13.355 20.0613 12.7431 20.1295 12.1088C20.1977 11.4745 20.1275 10.833 19.9238 10.2284C19.7202 9.6239 19.3878 9.07071 18.9497 8.60701C18.5116 8.1433 17.9781 7.78012 17.3861 7.54248L6.98547 17.9424C7.35115 18.1547 7.76451 18.2713 8.18725 18.2814C8.61 18.2915 9.02845 18.1948 9.40385 18.0001Z" fill="black"/>
<path d="M12 0.09375C9.64517 0.09375 7.34322 0.792039 5.38525 2.10031C3.42727 3.40859 1.90122 5.26809 1.00006 7.44368C0.0989088 9.61926 -0.136875 12.0132 0.322531 14.3228C0.781936 16.6324 1.9159 18.7539 3.58102 20.419C5.24613 22.0841 7.36762 23.2181 9.67721 23.6775C11.9868 24.1369 14.3807 23.9011 16.5563 22.9999C18.7319 22.0988 20.5914 20.5727 21.8997 18.6148C23.208 16.6568 23.9063 14.3548 23.9063 12C23.9027 8.84336 22.6471 5.81704 20.4151 3.58496C18.183 1.35288 15.1566 0.0973231 12 0.09375ZM12 22.5938C9.41717 22.596 6.92325 21.6506 4.99088 19.9369L6.98551 17.9422C6.60058 17.7191 6.28074 17.3991 6.05775 17.0141L4.06276 19.0091C2.27644 16.9896 1.32778 14.3648 1.41026 11.6699C1.49273 8.975 2.60013 6.41307 4.5066 4.5066C6.41307 2.60013 8.975 1.49273 11.6699 1.41025C14.3648 1.32778 16.9896 2.27643 19.0091 4.06275L16.32 6.75187C16.36 6.9225 16.3862 7.09606 16.3984 7.27087C16.7375 7.32211 17.0694 7.4126 17.3876 7.5405L19.9376 4.9905C21.2888 6.51824 22.17 8.40369 22.4753 10.4202C22.7806 12.4367 22.497 14.4985 21.6586 16.3578C20.8203 18.217 19.4628 19.7945 17.7494 20.9008C16.036 22.007 14.0395 22.5949 12 22.5938Z" fill="black"/>
<path d="M9 20.9062C9.36244 20.9062 9.65625 20.6124 9.65625 20.25C9.65625 19.8876 9.36244 19.5938 9 19.5938C8.63756 19.5938 8.34375 19.8876 8.34375 20.25C8.34375 20.6124 8.63756 20.9062 9 20.9062Z" fill="black"/>
<path d="M8.25 5.15625C8.61244 5.15625 8.90625 4.86244 8.90625 4.5C8.90625 4.13756 8.61244 3.84375 8.25 3.84375C7.88756 3.84375 7.59375 4.13756 7.59375 4.5C7.59375 4.86244 7.88756 5.15625 8.25 5.15625Z" fill="black"/>
</g>
<defs>
<clipPath id="clip0_100_682">
<rect width="24" height="24" fill="white"/>
</clipPath>
</defs>
</svg>
