<svg width="24" height="24" viewBox="0 0 24 24" fill="none" xmlns="http://www.w3.org/2000/svg">
<g clip-path="url(#clip0_100_693)">
<path d="M11.6754 8.54232H14.4582C14.5957 8.3609 14.7572 8.199 14.9467 8.07209C14.6539 7.94924 14.448 7.65961 14.448 7.32198C14.448 6.87249 14.8121 6.50842 15.2616 6.50842C15.7111 6.50842 16.0751 6.87249 16.0751 7.32198C16.0751 7.47575 16.03 7.61812 15.9556 7.74097C15.9962 7.73853 16.0341 7.72876 16.0751 7.72876C16.737 7.72876 17.3203 8.05134 17.6917 8.54232H19.1488C19.0088 8.30192 18.9226 8.02653 18.9226 7.72876C18.9226 6.90178 19.5446 6.2249 20.3439 6.12239C20.0644 5.6188 19.5307 5.28809 18.9226 5.28809C17.9589 5.28809 17.5623 6.01907 17.5583 6.02639L17.2621 6.58734L16.8757 6.08456C16.4868 5.57853 15.8982 5.28809 15.2616 5.28809C14.1401 5.28809 13.2277 6.20049 13.2277 7.32198V7.72876H12.8209C12.2913 7.72876 11.8438 8.07005 11.6754 8.54232Z" fill="black"/>
<path d="M14.8547 9.76282C14.8547 10.4356 15.4023 10.9832 16.0751 10.9832C16.7479 10.9832 17.2954 10.4356 17.2954 9.76282C17.2954 9.09001 16.7479 8.54248 16.0751 8.54248C15.4023 8.54248 14.8547 9.09001 14.8547 9.76282ZM16.4819 9.76282C16.4819 9.98736 16.2996 10.1696 16.0751 10.1696C15.8505 10.1696 15.6683 9.98736 15.6683 9.76282C15.6683 9.53828 15.8505 9.35604 16.0751 9.35604C16.2996 9.35604 16.4819 9.53828 16.4819 9.76282Z" fill="black"/>
<path d="M10.787 9.35596V10.1695H14.0823C14.0555 10.0381 14.0412 9.90186 14.0412 9.76274C14.0412 9.62362 14.0555 9.48735 14.0823 9.35596H10.787Z" fill="black"/>
<path d="M6.71916 1.2203C6.71916 0.77162 6.35428 0.406738 5.9056 0.406738C5.45692 0.406738 5.09204 0.77162 5.09204 1.2203V3.66098H6.71916V1.2203Z" fill="black"/>
<path d="M22.9903 9.35596H18.0679C18.0947 9.48735 18.109 9.62362 18.109 9.76274C18.109 9.83677 18.0947 9.90714 18.087 9.97914L18.2774 10.1695H22.9903V9.35596Z" fill="black"/>
<path d="M20.5496 8.5424C20.999 8.5424 21.3632 8.17816 21.3632 7.72884C21.3632 7.27953 20.999 6.91528 20.5496 6.91528C20.1003 6.91528 19.7361 7.27953 19.7361 7.72884C19.7361 8.17816 20.1003 8.5424 20.5496 8.5424Z" fill="black"/>
<path d="M22.1768 10.9832H19.0909L22.1768 14.069V10.9832Z" fill="black"/>
<path d="M16.075 11.7967C15.4132 11.7967 14.8299 11.4741 14.4585 10.9832H11.6005V19.1187C12.0491 19.1187 12.414 19.4836 12.414 19.9323V23.1865H20.9564C21.6292 23.1865 22.1767 22.639 22.1767 21.9662V17.66L16.2914 11.7747C16.2194 11.7825 16.1491 11.7967 16.075 11.7967Z" fill="black"/>
<path d="M17.7946 10.8374C17.6306 11.0986 17.4106 11.3186 17.1494 11.4826L23.1437 17.4769C23.4696 17.4146 23.7266 17.1575 23.7889 16.8317L17.7946 10.8374Z" fill="black"/>
<path d="M0.210693 23.1865H11.6005V24.0001H0.210693V23.1865Z" fill="black"/>
<path d="M9.15984 19.1187H8.34628C8.34628 19.5673 7.9814 19.9322 7.53272 19.9322H4.27849C3.82981 19.9322 3.46493 19.5673 3.46493 19.1187H2.65137V20.7458H9.15984V19.1187Z" fill="black"/>
<path d="M5.09204 4.47461H6.71916V17.4916H5.09204V4.47461Z" fill="black"/>
<path d="M4.27844 18.3052H7.53268V19.1187H4.27844V18.3052Z" fill="black"/>
<path d="M9.97341 20.7457C9.97341 21.1944 9.60852 21.5592 9.15985 21.5592H2.65137C2.20269 21.5592 1.83781 21.1944 1.83781 20.7457V19.9321H0.210693V22.3728H11.6005V19.9321H9.97341V20.7457Z" fill="black"/>
<path d="M11.1937 5.69499C11.643 5.69499 12.0072 5.33075 12.0072 4.88143C12.0072 4.43211 11.643 4.06787 11.1937 4.06787C10.7444 4.06787 10.3801 4.43211 10.3801 4.88143C10.3801 5.33075 10.7444 5.69499 11.1937 5.69499Z" fill="black"/>
<path d="M16.0751 3.25424C16.9737 3.25424 17.7022 2.52575 17.7022 1.62712C17.7022 0.728486 16.9737 0 16.0751 0C15.1765 0 14.448 0.728486 14.448 1.62712C14.448 2.52575 15.1765 3.25424 16.0751 3.25424Z" fill="black"/>
<path d="M20.1429 2.4406C20.5922 2.4406 20.9565 2.07635 20.9565 1.62704C20.9565 1.17772 20.5922 0.813477 20.1429 0.813477C19.6936 0.813477 19.3293 1.17772 19.3293 1.62704C19.3293 2.07635 19.6936 2.4406 20.1429 2.4406Z" fill="black"/>
</g>
<defs>
<clipPath id="clip0_100_693">
<rect width="24" height="24" fill="white"/>
</clipPath>
</defs>
</svg>
