<svg width="24" height="24" viewBox="0 0 24 24" fill="none" xmlns="http://www.w3.org/2000/svg">
<path d="M21.3336 0H9.00178C8.67848 0 8.38936 0.148731 8.19897 0.381258C8.40806 0.565546 8.58794 0.78178 8.7333 1.02113H21.3337C21.3427 1.02113 21.3501 1.02851 21.3501 1.03758V12.3394C21.3501 12.3483 21.3427 12.3558 21.3337 12.3558H9.64719V13.3769H21.3336C21.9056 13.3769 22.3712 12.9115 22.3712 12.3394V1.03758C22.3712 0.465456 21.9057 0 21.3336 0Z" fill="black"/>
<path d="M10.7301 11.0967L13.6261 8.91822C14.0336 8.61168 14.1182 8.03578 13.8194 7.62483C13.968 7.01481 14.3508 5.44323 14.4933 4.85762L16.6967 5.39419C16.7948 5.41811 16.8938 5.35791 16.9177 5.25974L17.1573 4.27586C17.1812 4.17769 17.121 4.07873 17.0229 4.05481L11.2767 2.65539C11.1786 2.63147 11.0796 2.69167 11.0557 2.78983L10.8161 3.77372C10.7922 3.87188 10.8524 3.97085 10.9505 3.99477L13.1539 4.53134C13.1231 4.6576 12.6266 6.69616 12.4361 7.47867L11.0927 8.48928L11.0862 7.18995C11.0801 5.97948 10.0906 4.9935 8.87864 4.9935C8.30378 4.9935 4.35443 4.9935 3.87067 4.9935C2.09714 4.99447 1.66789 6.26024 1.66323 7.18995L1.6288 14.0431C1.62615 14.5583 2.04176 14.9781 2.5569 14.9807C2.5585 14.9807 2.56011 14.9807 2.56172 14.9807C3.07124 14.9807 3.49182 14.5681 3.49447 14.0525L3.52891 7.19926C3.52947 7.0999 3.61022 7.01971 3.7095 7.02003C3.80879 7.02027 3.88914 7.10094 3.88914 7.20015C3.88922 9.42902 3.88954 21.8603 3.88954 22.8806C3.88954 23.4989 4.39063 24 5.00891 24C5.62623 24 6.12828 23.5001 6.12828 22.8806V13.9331H6.61164V22.8806C6.61164 23.497 7.11073 24 7.73101 24C8.34809 24 8.85039 23.5002 8.85039 22.8806C8.85039 8.26871 8.83056 16.284 8.83008 7.20031C8.83008 7.09267 8.91717 7.00542 9.02472 7.0051C9.13236 7.00478 9.21993 7.09163 9.22049 7.19926L9.23638 10.3559C9.2404 11.1243 10.1208 11.5551 10.7301 11.0967Z" fill="black"/>
<path d="M18.5822 1.90845L18.4398 2.50762L17.8406 2.65001L18.4398 2.7924L18.5822 3.39158L18.7246 2.7924L19.3238 2.65001L18.7246 2.50762L18.5822 1.90845Z" fill="black"/>
<path d="M19.7055 4.71024L19.8086 4.27609L20.2428 4.17287L19.8086 4.06973L19.7055 3.6355L19.6023 4.06973L19.1681 4.17287L19.6023 4.27609L19.7055 4.71024Z" fill="black"/>
<path d="M18.8885 5.54858L18.7658 6.06525L18.249 6.18805L18.7658 6.31078L18.8885 6.82752L19.0113 6.31078L19.528 6.18805L19.0113 6.06525L18.8885 5.54858Z" fill="black"/>
<path d="M6.38268 4.37718C7.44378 4.37718 8.31602 3.51698 8.31602 2.44384C8.31602 1.37607 7.45044 0.510498 6.38268 0.510498C5.31492 0.510498 4.44934 1.37607 4.44934 2.44384C4.44934 3.52011 5.32511 4.37718 6.38268 4.37718Z" fill="black"/>
</svg>
