<svg width="24" height="24" viewBox="0 0 24 24" fill="none" xmlns="http://www.w3.org/2000/svg">
<g clip-path="url(#clip0_100_730)">
<path d="M23.2646 0.749895C23.2693 0.493489 23.0593 0.282082 22.8024 0.287707C19.2179 0.361301 15.5785 0.458332 12 0.635989C11.9986 0.635989 11.9972 0.636457 11.9963 0.636457C8.41833 0.45927 4.78224 0.362239 1.19771 0.288645C0.940831 0.282551 0.732237 0.493957 0.736456 0.749895L0.713487 1.95927L0.693799 3.16864C0.689112 3.44286 0.908487 3.6688 1.18271 3.67255C1.18458 3.67349 1.69271 3.68005 2.26833 3.68708C2.23364 4.34099 2.19942 5.12005 2.17411 5.6788C1.9613 10.6893 1.87224 15.7251 1.83802 20.7397C1.83239 21.3674 1.82864 22.6208 1.82771 23.2499C1.82724 23.5715 2.08692 23.8326 2.40849 23.833C3.01271 23.8382 4.22536 23.8316 4.82958 23.833C5.15208 23.834 5.41364 23.5719 5.41317 23.2494C5.4113 22.6265 5.40802 22.0026 5.40427 21.3791C5.54208 21.3993 5.67989 21.4176 5.81817 21.4354C6.11255 21.4733 6.40692 21.5052 6.7013 21.5357C7.29005 21.5947 7.8788 21.6388 8.46755 21.6749C9.64505 21.7443 10.8225 21.7761 12 21.7761C13.1775 21.7757 14.355 21.7433 15.5325 21.674C16.1213 21.6379 16.71 21.5938 17.2988 21.5347C17.5932 21.5043 17.8875 21.4729 18.1819 21.4344C18.3193 21.4171 18.4561 21.3983 18.5935 21.3786C18.5902 22.0138 18.5879 22.7947 18.5874 23.2494C18.5869 23.571 18.8466 23.8321 19.1682 23.8326C19.7724 23.8382 20.9851 23.8307 21.5893 23.8326C21.9118 23.833 22.1733 23.5715 22.1729 23.249C22.1522 16.7352 22.0646 10.1952 21.7299 3.68802C22.0904 3.68333 22.4485 3.67771 22.8029 3.67255C23.0832 3.67724 23.3133 3.44802 23.3077 3.16771C23.2936 2.36239 23.2824 1.55614 23.2646 0.749895ZM11.9963 0.863332C11.9977 0.863332 11.9986 0.863801 12 0.863801C12.9 0.910676 13.8005 0.948645 14.7005 0.982395C17.2088 1.07896 19.8075 1.15021 22.3318 1.20224C22.3224 1.68693 22.314 2.17161 22.306 2.65583C18.105 2.59443 13.4644 2.57286 9.29958 2.58739C7.0538 2.59583 4.04114 2.62255 1.69271 2.65677C1.68521 2.20114 1.67771 1.64708 1.6688 1.20083C4.19161 1.1488 6.79271 1.07802 9.29958 0.980989C10.1982 0.947707 11.0972 0.909739 11.9963 0.863332ZM16.1607 20.7486L17.5683 19.341H18.2325L16.7761 20.7974C16.5713 20.7796 16.366 20.7636 16.1607 20.7486ZM5.20083 10.0583C5.49942 10.2313 5.8013 10.3949 6.10599 10.5571C6.25177 10.6358 6.40599 10.7099 6.56442 10.7647C7.14708 10.9715 7.81411 10.9705 8.40427 10.7708C8.57021 10.7188 8.77317 10.6443 8.93864 10.5946C9.31646 10.483 9.72942 10.4755 10.1063 10.581C10.2244 10.6147 10.3486 10.6616 10.4607 10.7104C10.5324 10.7399 10.7086 10.8149 10.779 10.844C11.1633 11.0094 11.581 11.0966 12 11.0985C12.4191 11.0961 12.8368 11.0094 13.2207 10.8435C13.373 10.7807 13.5699 10.6944 13.7227 10.6363C14.0049 10.5308 14.3072 10.4905 14.6105 10.5121C14.8697 10.5271 15.1313 10.6124 15.3765 10.6986C16.1368 10.9879 16.9327 11.0108 17.6766 10.6672C18.0507 10.4797 18.4158 10.2805 18.7772 10.071C18.7444 11.2002 18.7163 12.3294 18.6933 13.4591C18.5011 13.5046 18.3104 13.5529 18.12 13.603C17.9016 13.6583 17.6785 13.7258 17.461 13.7802C17.1399 13.8547 16.7972 13.8599 16.4818 13.7966C16.3261 13.7647 16.1719 13.7179 16.0275 13.6551C15.8874 13.5894 15.6657 13.4863 15.5255 13.4216C14.7765 13.0672 13.883 13.0532 13.1166 13.3682C12.9966 13.4127 12.8157 13.483 12.6961 13.5252C12.2354 13.694 11.7183 13.6851 11.2604 13.5097C11.0157 13.4207 10.7541 13.3082 10.5029 13.2407C9.84989 13.0691 9.14442 13.1216 8.52942 13.3958C8.39677 13.4558 8.19052 13.5524 8.05786 13.6143C7.59099 13.8416 7.05052 13.8969 6.53958 13.7793C6.12614 13.6691 5.71411 13.5538 5.29692 13.4558C5.27067 12.3215 5.23927 11.1899 5.20083 10.0583ZM18.788 9.71661C18.564 9.76818 18.3418 9.82443 18.1205 9.88255C17.9021 9.93786 17.679 10.0054 17.4615 10.0597C17.1404 10.1343 16.7977 10.1394 16.4822 10.0761C16.3266 10.0443 16.1724 9.99739 16.028 9.93458C15.8879 9.86896 15.6661 9.76583 15.526 9.70115C14.7769 9.34677 13.8835 9.33271 13.1171 9.64771C12.9971 9.69224 12.8161 9.76255 12.6966 9.80474C12.2358 9.97302 11.7188 9.96458 11.2608 9.78927C11.0161 9.70021 10.7546 9.58771 10.5033 9.52021C9.85036 9.34865 9.14489 9.40114 8.52989 9.67536C8.39724 9.73536 8.19099 9.83193 8.05833 9.8938C7.59146 10.1211 7.05099 10.1765 6.54005 10.0588C6.09099 9.93927 5.64333 9.81318 5.18911 9.71005C5.1488 8.55505 5.10146 7.40099 5.04567 6.24786C5.39442 6.45505 5.7488 6.64864 6.10692 6.83896C6.25271 6.91771 6.40692 6.99177 6.56536 7.04661C7.14802 7.25333 7.81505 7.2524 8.40521 7.05271C8.57114 7.00068 8.77411 6.92614 8.93958 6.87646C9.31739 6.76489 9.73036 6.75739 10.1072 6.86286C10.2254 6.89661 10.3496 6.94349 10.4616 6.99224C10.5333 7.02177 10.7096 7.09677 10.7799 7.12583C11.1643 7.2913 11.5819 7.37849 12.001 7.38036C12.42 7.37802 12.8377 7.29083 13.2216 7.12536C13.374 7.06255 13.5708 6.9763 13.7236 6.91818C14.0058 6.81271 14.3082 6.77239 14.6115 6.79396C14.8707 6.80896 15.1322 6.89427 15.3774 6.98052C16.1377 7.26974 16.9336 7.29271 17.6775 6.94911C18.0975 6.73911 18.5054 6.51318 18.9099 6.27505C18.863 7.41974 18.8227 8.56771 18.788 9.71661ZM5.30536 13.8365C5.56974 13.9874 5.83692 14.1322 6.10599 14.2757C6.25177 14.3544 6.40599 14.4285 6.56442 14.4833C7.14708 14.6901 7.81411 14.6891 8.40427 14.4894C8.57021 14.4374 8.77317 14.3629 8.93864 14.3132C9.31646 14.2016 9.72942 14.1941 10.1063 14.2996C10.2244 14.3333 10.3486 14.3802 10.4607 14.429C10.5324 14.4585 10.7086 14.5335 10.779 14.5626C11.1633 14.728 11.581 14.8152 12 14.8171C12.4191 14.8147 12.8368 14.7276 13.2207 14.5621C13.373 14.4993 13.5699 14.413 13.7227 14.3549C14.0049 14.2494 14.3072 14.2091 14.6105 14.2307C14.8697 14.2457 15.1313 14.331 15.3765 14.4172C16.1368 14.7065 16.9327 14.7294 17.6766 14.3858C18.0193 14.2143 18.354 14.0324 18.6854 13.8421C18.6633 14.9591 18.6455 16.0761 18.6315 17.1927C18.4604 17.234 18.2897 17.2771 18.12 17.3216C17.9016 17.3769 17.6785 17.4444 17.461 17.4988C17.1399 17.5733 16.7972 17.5785 16.4818 17.5152C16.3261 17.4833 16.1719 17.4365 16.0275 17.3736C15.8874 17.308 15.6657 17.2049 15.5255 17.1402C14.7765 16.7858 13.883 16.7718 13.1166 17.0868C12.9966 17.1313 12.8157 17.2016 12.6961 17.2438C12.2354 17.4121 11.7183 17.4036 11.2604 17.2283C11.0157 17.1393 10.7541 17.0268 10.5029 16.9593C9.84989 16.7877 9.14442 16.8402 8.52942 17.1144C8.39677 17.1744 8.19052 17.271 8.05786 17.3329C7.59099 17.5602 7.05052 17.6155 6.53958 17.4979C6.14864 17.3938 5.75864 17.2846 5.36489 17.1899C5.34942 16.071 5.33021 14.9535 5.30536 13.8365ZM4.71567 4.29505C4.67208 4.96818 4.62333 5.9863 4.59146 6.66458C4.35333 11.9863 4.26614 17.3366 4.24786 22.6658C3.85083 22.6649 3.39005 22.664 2.99255 22.6644L2.99114 21.9951C2.98411 20.8776 2.97567 19.3466 2.96161 18.2296C2.91005 13.6326 2.80739 9.01771 2.59083 4.42349C2.57771 4.17927 2.56552 3.93505 2.55286 3.69036C3.22646 3.6988 3.8963 3.70771 3.89817 3.70911C5.24255 3.72458 7.95521 3.74333 9.29958 3.74896C12.4041 3.75974 15.7725 3.75083 19.0261 3.71989C18.9919 4.36677 18.9586 5.12849 18.9338 5.67833C18.9296 5.77489 18.9258 5.87146 18.9221 5.96802C18.6525 6.02755 18.3858 6.09411 18.1205 6.16396C17.9021 6.21927 17.679 6.28677 17.4615 6.34114C17.1404 6.41568 16.7977 6.42083 16.4822 6.35755C16.3266 6.32568 16.1724 6.2788 16.028 6.21599C15.8879 6.15036 15.6661 6.04724 15.526 5.98255C14.7769 5.62818 13.8835 5.61411 13.1171 5.92911C12.9971 5.97364 12.8161 6.04396 12.6966 6.08614C12.2358 6.25489 11.7188 6.24599 11.2608 6.07068C11.0161 5.98161 10.7546 5.86911 10.5033 5.80161C9.85036 5.63005 9.14489 5.68255 8.52989 5.95677C8.39724 6.01677 8.19099 6.11333 8.05833 6.17521C7.59146 6.40255 7.05099 6.45786 6.54005 6.34021C6.03896 6.20708 5.54021 6.06552 5.03161 5.95677C5.00442 5.40271 4.97583 4.84864 4.94442 4.29505C4.94067 4.2388 4.89567 4.19239 4.83802 4.18864C4.77427 4.18443 4.71989 4.23224 4.71567 4.29505ZM5.81817 20.945C5.67942 20.9629 5.54067 20.9811 5.40239 21.0013C5.39489 19.8651 5.38458 18.7283 5.37005 17.5911C5.61333 17.729 5.85896 17.8621 6.10646 17.9938C6.25224 18.0725 6.40646 18.1466 6.56489 18.2015C7.14755 18.4082 7.81458 18.4072 8.40474 18.2076C8.57067 18.1555 8.77364 18.081 8.93911 18.0313C9.31692 17.9197 9.72989 17.9122 10.1068 18.0177C10.2249 18.0515 10.3491 18.0983 10.4611 18.1471C10.5329 18.1766 10.7091 18.2516 10.7794 18.2807C11.1638 18.4461 11.5815 18.5333 12.0005 18.5352C12.4196 18.5329 12.8372 18.4457 13.2211 18.2802C13.3735 18.2174 13.5704 18.1311 13.7232 18.073C14.0054 17.9676 14.3077 17.9272 14.611 17.9488C14.8702 17.9638 15.1318 18.0491 15.3769 18.1354C16.1372 18.4246 16.9332 18.4476 17.6771 18.104C17.9996 17.9427 18.3151 17.7716 18.6272 17.5935C18.6211 18.0988 18.616 18.6036 18.6113 19.1085H9.7913C9.50864 19.1085 9.24896 19.2627 9.11349 19.5107L8.46005 20.7074C7.87364 20.743 7.28724 20.7876 6.70083 20.8461C6.40692 20.8747 6.11255 20.9066 5.81817 20.945ZM14.2716 20.6465L15.5766 19.3415H16.2408L14.9086 20.6736C14.6963 20.6633 14.484 20.654 14.2716 20.6465ZM13.3041 20.6183L14.581 19.3415H15.2452L13.951 20.6357C13.7354 20.6286 13.5197 20.6226 13.3041 20.6183ZM12.3207 20.6057L13.5854 19.341H14.2496L12.9783 20.6122C12.759 20.609 12.54 20.6066 12.3207 20.6057ZM11.3222 20.6085L12.5893 19.3415H13.2535L11.9902 20.6047C11.7675 20.6043 11.5449 20.6061 11.3222 20.6085ZM10.3079 20.6272L11.5936 19.3415H12.2579L10.9866 20.6127C10.7602 20.616 10.5338 20.6211 10.3079 20.6272ZM9.27474 20.6638L10.5975 19.341H11.2618L9.96567 20.6371C9.73552 20.6451 9.50536 20.654 9.27474 20.6638ZM8.73567 20.691L9.31927 19.6218C9.41349 19.4488 9.59442 19.3415 9.79177 19.3415H10.2666L8.92739 20.6807C8.86317 20.6835 8.79942 20.6872 8.73567 20.691ZM15.2241 20.6896L16.5722 19.3415H17.2365L15.8504 20.7276C15.7444 20.7205 15.638 20.7135 15.5321 20.7069C15.4299 20.7004 15.3272 20.6952 15.2241 20.6896ZM17.0804 20.8251L18.5644 19.341H18.609C18.6071 19.5496 18.6052 19.7577 18.6038 19.9658L17.6832 20.8865C17.5552 20.8724 17.4272 20.8588 17.2993 20.8452C17.2261 20.8386 17.153 20.8321 17.0804 20.8251ZM18.1819 20.946C18.1144 20.9371 18.0469 20.9296 17.9794 20.9216L18.601 20.3001C18.6 20.4468 18.5986 20.593 18.5977 20.7397C18.5968 20.818 18.5963 20.9066 18.5958 21.0022C18.458 20.9821 18.3202 20.9633 18.1819 20.946ZM21.4079 4.42349C21.1327 10.2674 21.038 16.1446 21.0085 21.9946L21.0071 22.6649L20.3799 22.6635L19.7527 22.6649C19.7499 21.6369 19.7415 20.4163 19.7349 19.4844C19.7335 19.3326 19.7316 19.1802 19.7302 19.0283C20.1929 18.7086 20.4971 18.1752 20.4971 17.5715V8.17114C20.4971 7.98552 20.5908 7.81583 20.7474 7.71646L20.8876 7.62786C20.9424 7.59318 20.9583 7.52099 20.9241 7.46614C20.8894 7.4113 20.8172 7.39536 20.7624 7.42958L20.6222 7.51818C20.3972 7.66068 20.2627 7.90443 20.2627 8.17114V17.5719C20.2627 18.0369 20.0546 18.4536 19.7274 18.7354C19.6768 13.9686 19.576 9.18458 19.351 4.42396C19.3383 4.18864 19.3266 3.95333 19.3144 3.71755C20.0325 3.71052 20.7446 3.70208 21.4463 3.69318C21.4332 3.93646 21.421 4.18021 21.4079 4.42349Z" fill="black"/>
</g>
<defs>
<clipPath id="clip0_100_730">
<rect width="24" height="24" fill="white"/>
</clipPath>
</defs>
</svg>
