<svg width="24" height="24" viewBox="0 0 24 24" fill="none" xmlns="http://www.w3.org/2000/svg">
<g clip-path="url(#clip0_100_736)">
<path d="M0.536211 12.0618L0.433086 12.6899C0.421893 12.7593 0.430426 12.8305 0.457713 12.8952C0.485 12.96 0.529942 13.0158 0.587413 13.0563C0.644883 13.0967 0.712569 13.1202 0.78275 13.1241C0.852931 13.1279 0.922782 13.112 0.984336 13.078L1.49996 12.7949L2.01371 13.0799C2.07526 13.1139 2.14512 13.1298 2.2153 13.126C2.28548 13.1221 2.35316 13.0986 2.41063 13.0581C2.4681 13.0177 2.51305 12.9619 2.54033 12.8971C2.56762 12.8323 2.57615 12.7612 2.56496 12.6918L2.46184 12.0637L2.89309 11.6249C2.94103 11.5756 2.97447 11.5139 2.98973 11.4468C3.00499 11.3797 3.00149 11.3097 2.97961 11.2445C2.95773 11.1792 2.91832 11.1212 2.86568 11.0769C2.81305 11.0325 2.74923 11.0035 2.68121 10.993L2.10184 10.9049L1.83934 10.3424C1.80905 10.278 1.76106 10.2235 1.70096 10.1854C1.64086 10.1472 1.57115 10.127 1.49996 10.127C1.42877 10.127 1.35906 10.1472 1.29896 10.1854C1.23886 10.2235 1.19087 10.278 1.16059 10.3424L0.898086 10.9049L0.318711 10.993C0.250692 11.0035 0.186871 11.0325 0.134238 11.0769C0.0816046 11.1212 0.0421897 11.1792 0.0203099 11.2445C-0.00156993 11.3097 -0.00507066 11.3797 0.0101911 11.4468C0.0254529 11.5139 0.0588884 11.5756 0.106836 11.6249L0.536211 12.0618Z" fill="black"/>
<path d="M0.536211 5.3118L0.433086 5.93992C0.421893 6.00931 0.430426 6.08045 0.457713 6.14523C0.485 6.21 0.529942 6.2658 0.587413 6.30627C0.644883 6.34673 0.712569 6.37023 0.78275 6.37408C0.852931 6.37793 0.922782 6.36198 0.984336 6.32805L1.49996 6.04492L2.01371 6.32992C2.07526 6.36386 2.14512 6.3798 2.2153 6.37595C2.28548 6.3721 2.35316 6.3486 2.41063 6.30814C2.4681 6.26768 2.51305 6.21187 2.54033 6.1471C2.56762 6.08233 2.57615 6.01119 2.56496 5.9418L2.46184 5.31367L2.89309 4.87492C2.94103 4.82555 2.97447 4.76394 2.98973 4.69683C3.00499 4.62972 3.00149 4.5597 2.97961 4.49445C2.95773 4.4292 2.91832 4.37123 2.86568 4.32688C2.81305 4.28254 2.74923 4.25354 2.68121 4.24305L2.10184 4.15492L1.83934 3.59242C1.80905 3.528 1.76106 3.47353 1.70096 3.43537C1.64086 3.39722 1.57115 3.37695 1.49996 3.37695C1.42877 3.37695 1.35906 3.39722 1.29896 3.43537C1.23886 3.47353 1.19087 3.528 1.16059 3.59242L0.898086 4.15492L0.318711 4.24305C0.250692 4.25354 0.186871 4.28254 0.134238 4.32688C0.0816046 4.37123 0.0421897 4.4292 0.0203099 4.49445C-0.00156993 4.5597 -0.00507066 4.62972 0.0101911 4.69683C0.0254529 4.76394 0.0588884 4.82555 0.106836 4.87492L0.536211 5.3118Z" fill="black"/>
<path d="M13.9237 13.875L14.4562 14.625H15.8306C15.7186 14.3919 15.6745 14.132 15.7031 13.875H13.9237Z" fill="black"/>
<path d="M24 13.3125C24 12.9046 23.879 12.5058 23.6524 12.1666C23.4258 11.8275 23.1037 11.5631 22.7268 11.407C22.3499 11.2509 21.9352 11.21 21.5351 11.2896C21.135 11.3692 20.7675 11.5656 20.4791 11.8541C20.1906 12.1425 19.9942 12.51 19.9146 12.9101C19.835 13.3102 19.8759 13.7249 20.032 14.1018C20.1881 14.4787 20.4525 14.8008 20.7916 15.0274C21.1308 15.254 21.5296 15.375 21.9375 15.375C22.4845 15.375 23.0091 15.1577 23.3959 14.7709C23.7827 14.3841 24 13.8595 24 13.3125ZM21.9375 14.625C21.6779 14.625 21.4242 14.548 21.2083 14.4038C20.9925 14.2596 20.8242 14.0546 20.7249 13.8148C20.6256 13.5749 20.5996 13.311 20.6502 13.0564C20.7009 12.8018 20.8259 12.568 21.0094 12.3844C21.193 12.2009 21.4268 12.0759 21.6814 12.0252C21.936 11.9746 22.1999 12.0006 22.4398 12.0999C22.6796 12.1992 22.8846 12.3675 23.0288 12.5833C23.173 12.7992 23.25 13.0529 23.25 13.3125C23.25 13.6606 23.1117 13.9944 22.8656 14.2406C22.6194 14.4867 22.2856 14.625 21.9375 14.625Z" fill="black"/>
<path d="M21.9375 13.6875C22.1446 13.6875 22.3125 13.5196 22.3125 13.3125C22.3125 13.1054 22.1446 12.9375 21.9375 12.9375C21.7304 12.9375 21.5625 13.1054 21.5625 13.3125C21.5625 13.5196 21.7304 13.6875 21.9375 13.6875Z" fill="black"/>
<path d="M20.3063 15.375H19.9144L21.6788 21.375H2.32125L4.25437 14.8013C4.27704 14.7553 4.31026 14.7154 4.35133 14.6847C4.39239 14.6541 4.44013 14.6336 4.49063 14.625H7.3125L7.875 13.875H4.5C4.28691 13.8838 4.08149 13.957 3.9108 14.0848C3.7401 14.2127 3.61213 14.3892 3.54375 14.5912L3.30375 15.375H1.5C1.40054 15.375 1.30516 15.4145 1.23483 15.4848C1.16451 15.5552 1.125 15.6505 1.125 15.75C1.125 15.8495 1.16451 15.9448 1.23483 16.0152C1.30516 16.0855 1.40054 16.125 1.5 16.125H3.0825L2.86125 16.875H1.125C1.02554 16.875 0.930161 16.9145 0.859835 16.9848C0.789509 17.0552 0.75 17.1505 0.75 17.25C0.75 17.3495 0.789509 17.4448 0.859835 17.5152C0.930161 17.5855 1.02554 17.625 1.125 17.625H2.64188L2.42062 18.375H0.75C0.650544 18.375 0.555161 18.4145 0.484835 18.4848C0.414509 18.5552 0.375 18.6505 0.375 18.75C0.375 18.8495 0.414509 18.9448 0.484835 19.0152C0.555161 19.0855 0.650544 19.125 0.75 19.125H2.20125L1.98 19.875H0.375C0.275544 19.875 0.180161 19.9145 0.109835 19.9848C0.0395088 20.0552 0 20.1505 0 20.25C0 20.3495 0.0395088 20.4448 0.109835 20.5152C0.180161 20.5855 0.275544 20.625 0.375 20.625H1.76063L1.53 21.4088C1.49767 21.4919 1.48696 21.5818 1.49889 21.6702C1.51082 21.7586 1.54499 21.8425 1.59821 21.9141C1.65142 21.9857 1.72193 22.0426 1.80314 22.0795C1.88435 22.1164 1.97359 22.132 2.0625 22.125H21.9375C22.0267 22.1327 22.1164 22.1175 22.1982 22.081C22.2799 22.0444 22.3509 21.9875 22.4046 21.9159C22.4583 21.8442 22.4928 21.76 22.5049 21.6713C22.517 21.5825 22.5063 21.4922 22.4738 21.4088L22.2394 20.625H23.625C23.7245 20.625 23.8198 20.5855 23.8902 20.5152C23.9605 20.4448 24 20.3495 24 20.25C24 20.1505 23.9605 20.0552 23.8902 19.9848C23.8198 19.9145 23.7245 19.875 23.625 19.875H22.02L21.7987 19.125H23.25C23.3495 19.125 23.4448 19.0855 23.5152 19.0152C23.5855 18.9448 23.625 18.8495 23.625 18.75C23.625 18.6505 23.5855 18.5552 23.5152 18.4848C23.4448 18.4145 23.3495 18.375 23.25 18.375H21.5794L21.3581 17.625H22.875C22.9745 17.625 23.0698 17.5855 23.1402 17.5152C23.2105 17.4448 23.25 17.3495 23.25 17.25C23.25 17.1505 23.2105 17.0552 23.1402 16.9848C23.0698 16.9145 22.9745 16.875 22.875 16.875H21.1369L20.9156 16.125H22.5C22.5995 16.125 22.6948 16.0855 22.7652 16.0152C22.8355 15.9448 22.875 15.8495 22.875 15.75C22.875 15.6505 22.8355 15.5552 22.7652 15.4848C22.6948 15.4145 22.5995 15.375 22.5 15.375H20.3063Z" fill="black"/>
<path d="M7.53938 15.9169C7.57042 15.9794 7.61828 16.0319 7.67757 16.0687C7.73686 16.1055 7.80524 16.125 7.875 16.125H13.875C13.9439 16.125 14.0114 16.1061 14.0702 16.0703C14.129 16.0344 14.1769 15.9831 14.2084 15.9219C14.24 15.8607 14.2541 15.792 14.2492 15.7233C14.2443 15.6546 14.2206 15.5886 14.1806 15.5325L13.1381 14.0625V12.75C13.1381 12.6505 13.0986 12.5552 13.0283 12.4848C12.958 12.4145 12.8626 12.375 12.7631 12.375H11.25V4.30125C11.2495 4.2056 11.2869 4.11364 11.354 4.04547C11.4211 3.97731 11.5125 3.93849 11.6081 3.9375H13.6706C13.7663 3.93849 13.8576 3.97731 13.9248 4.04547C13.9919 4.11364 14.0293 4.2056 14.0288 4.30125V5.87063C14.0288 6.06954 14.1078 6.2603 14.2484 6.40096C14.3891 6.54161 14.5798 6.62063 14.7788 6.62063H15.5625C15.5772 6.8093 15.6626 6.98545 15.8017 7.11376C15.9408 7.24208 16.1233 7.31307 16.3125 7.3125H17.0794L16.3913 13.875C16.3785 13.9698 16.3864 14.0663 16.4145 14.1577C16.4426 14.2492 16.4902 14.3334 16.554 14.4047C16.6178 14.476 16.6963 14.5326 16.7841 14.5706C16.8719 14.6087 16.9669 14.6272 17.0625 14.625H19.4513C19.1717 14.0938 19.0694 13.487 19.1594 12.8935C19.2493 12.3 19.5269 11.7508 19.9513 11.3263C20.3758 10.9019 20.925 10.6243 21.5185 10.5344C22.112 10.4444 22.7188 10.5467 23.25 10.8263V3C23.25 2.80109 23.171 2.61032 23.0303 2.46967C22.8897 2.32902 22.6989 2.25 22.5 2.25H18.3619C18.1566 2.25437 17.9598 2.33261 17.8076 2.47038C17.6553 2.60814 17.5579 2.79619 17.5331 3L17.3156 5.0625H16.3125C16.1136 5.0625 15.9228 5.14152 15.7822 5.28217C15.6415 5.42282 15.5625 5.61359 15.5625 5.8125V5.86875H14.7769V4.30125C14.7774 4.00669 14.661 3.72396 14.4532 3.51515C14.2454 3.30633 13.9633 3.18849 13.6688 3.1875H11.6063C11.312 3.18899 11.0304 3.30705 10.823 3.51581C10.6157 3.72457 10.4995 4.00701 10.5 4.30125V12.375H9.04875C8.9493 12.375 8.85391 12.4145 8.78359 12.4848C8.71326 12.5552 8.67375 12.6505 8.67375 12.75V14.0625L7.575 15.525C7.53334 15.5806 7.50795 15.6467 7.50166 15.7159C7.49537 15.7851 7.50843 15.8547 7.53938 15.9169ZM21.1875 8.625C21.1875 8.72446 21.148 8.81984 21.0777 8.89017C21.0073 8.96049 20.912 9 20.8125 9C20.713 9 20.6177 8.96049 20.5473 8.89017C20.477 8.81984 20.4375 8.72446 20.4375 8.625V6.375C20.4375 6.27554 20.477 6.18016 20.5473 6.10983C20.6177 6.03951 20.713 6 20.8125 6C20.912 6 21.0073 6.03951 21.0777 6.10983C21.148 6.18016 21.1875 6.27554 21.1875 6.375V8.625ZM20.4375 4.5H21.1875C21.287 4.5 21.3823 4.53951 21.4527 4.60984C21.523 4.68016 21.5625 4.77554 21.5625 4.875C21.5625 4.97446 21.523 5.06984 21.4527 5.14016C21.3823 5.21049 21.287 5.25 21.1875 5.25H20.4375C20.338 5.25 20.2427 5.21049 20.1723 5.14016C20.102 5.06984 20.0625 4.97446 20.0625 4.875C20.0625 4.77554 20.102 4.68016 20.1723 4.60984C20.2427 4.53951 20.338 4.5 20.4375 4.5ZM16.3125 5.8125H17.2369L17.1581 6.5625H16.3125V5.8125ZM9.34313 14.415H11.3906C11.4901 14.415 11.5855 14.3755 11.6558 14.3052C11.7261 14.2348 11.7656 14.1395 11.7656 14.04C11.7656 13.9405 11.7261 13.8452 11.6558 13.7748C11.5855 13.7045 11.4901 13.665 11.3906 13.665H9.42375V13.125H12.3881V14.1825C12.3881 14.2604 12.4123 14.3365 12.4575 14.4L13.1494 15.375H8.625L9.34313 14.415Z" fill="black"/>
<path d="M5.94 15.5625C5.81201 15.5665 5.68817 15.6089 5.58454 15.6841C5.4809 15.7593 5.40224 15.8639 5.35875 15.9844L4.14187 20.0137C4.12258 20.0639 4.1165 20.1181 4.12423 20.1713C4.13195 20.2244 4.15322 20.2747 4.18599 20.3173C4.21875 20.3598 4.26192 20.3932 4.31132 20.4143C4.36073 20.4353 4.41473 20.4433 4.46812 20.4375H19.5319C19.585 20.4432 19.6388 20.4352 19.688 20.4142C19.7371 20.3932 19.7801 20.36 19.8128 20.3177C19.8456 20.2754 19.8669 20.2254 19.8748 20.1726C19.8827 20.1197 19.877 20.0657 19.8581 20.0156L18.6394 15.9844C18.596 15.8642 18.5176 15.7598 18.4144 15.6846C18.3111 15.6094 18.1877 15.5669 18.06 15.5625H14.9831C15.0245 15.8023 14.987 16.049 14.8762 16.2656C14.8762 16.2825 14.8575 16.2956 14.8481 16.3125H17.1487L12 17.5069L9.2775 16.875H7.875C7.68108 16.8744 7.49061 16.8236 7.32207 16.7277C7.15354 16.6318 7.01267 16.4939 6.91312 16.3275L6.85125 16.3125H6.90375C6.8925 16.2919 6.87937 16.275 6.86812 16.2544C6.76237 16.0402 6.72757 15.7978 6.76875 15.5625H5.94ZM17.0625 17.625H17.25C17.3495 17.625 17.4448 17.6645 17.5152 17.7348C17.5855 17.8052 17.625 17.9005 17.625 18C17.625 18.0995 17.5855 18.1948 17.5152 18.2652C17.4448 18.3355 17.3495 18.375 17.25 18.375H17.0625C16.963 18.375 16.8677 18.3355 16.7973 18.2652C16.727 18.1948 16.6875 18.0995 16.6875 18C16.6875 17.9005 16.727 17.8052 16.7973 17.7348C16.8677 17.6645 16.963 17.625 17.0625 17.625ZM12 18.2756L18.0862 19.6875H5.91375L12 18.2756ZM6.9375 17.625C7.03695 17.625 7.13234 17.6645 7.20266 17.7348C7.27299 17.8052 7.3125 17.9005 7.3125 18C7.3125 18.0995 7.27299 18.1948 7.20266 18.2652C7.13234 18.3355 7.03695 18.375 6.9375 18.375H6.75C6.65054 18.375 6.55516 18.3355 6.48483 18.2652C6.4145 18.1948 6.375 18.0995 6.375 18C6.375 17.9005 6.4145 17.8052 6.48483 17.7348C6.55516 17.6645 6.65054 17.625 6.75 17.625H6.9375Z" fill="black"/>
<path d="M5.12996 8.46752L4.96121 9.50252C4.95002 9.57191 4.95855 9.64305 4.98584 9.70782C5.01313 9.7726 5.05807 9.8284 5.11554 9.86886C5.17301 9.90933 5.24069 9.93282 5.31088 9.93668C5.38106 9.94053 5.45091 9.92458 5.51246 9.89065L6.37496 9.4144L7.23559 9.89065C7.29714 9.92458 7.36699 9.94053 7.43717 9.93668C7.50735 9.93282 7.57504 9.90933 7.63251 9.86886C7.68998 9.8284 7.73492 9.7726 7.76221 9.70782C7.78949 9.64305 7.79803 9.57191 7.78684 9.50252L7.61809 8.46752L8.32871 7.73815C8.37663 7.6889 8.41009 7.62743 8.42545 7.56046C8.44081 7.49348 8.43747 7.42357 8.4158 7.35837C8.39413 7.29316 8.35496 7.23516 8.30257 7.19071C8.25018 7.14625 8.18657 7.11704 8.11871 7.10627L7.15121 6.95815L6.71434 6.02065C6.68405 5.95622 6.63606 5.90175 6.57596 5.86359C6.51586 5.82544 6.44615 5.80518 6.37496 5.80518C6.30377 5.80518 6.23406 5.82544 6.17396 5.86359C6.11386 5.90175 6.06587 5.95622 6.03559 6.02065L5.59871 6.95815L4.63121 7.10627C4.56319 7.11676 4.49937 7.14576 4.44674 7.19011C4.3941 7.23445 4.35469 7.29242 4.33281 7.35767C4.31093 7.42293 4.30743 7.49294 4.32269 7.56005C4.33795 7.62716 4.37139 7.68877 4.41934 7.73815L5.12996 8.46752ZM5.90996 7.66877C5.96993 7.65861 6.02653 7.63401 6.07487 7.5971C6.12322 7.56019 6.16186 7.51207 6.18746 7.4569L6.37496 7.06877L6.56246 7.4569C6.58859 7.51277 6.62809 7.56134 6.67748 7.5983C6.72687 7.63526 6.78461 7.65947 6.84559 7.66877L7.28996 7.73627L6.95621 8.0794C6.91527 8.12147 6.88477 8.17258 6.86719 8.22859C6.8496 8.28461 6.84541 8.34397 6.85496 8.4019L6.92996 8.86127L6.55496 8.65877C6.49931 8.62791 6.43672 8.61171 6.37309 8.61171C6.30945 8.61171 6.24686 8.62791 6.19121 8.65877L5.81621 8.86127L5.89121 8.4019C5.90076 8.34397 5.89657 8.28461 5.87898 8.22859C5.8614 8.17258 5.8309 8.12147 5.78996 8.0794L5.45621 7.73627L5.90996 7.66877Z" fill="black"/>
</g>
<defs>
<clipPath id="clip0_100_736">
<rect width="24" height="24" fill="white"/>
</clipPath>
</defs>
</svg>
