<svg width="20" height="20" viewBox="0 0 20 20" fill="none" xmlns="http://www.w3.org/2000/svg">
<mask id="mask0_100_647" style="mask-type:luminance" maskUnits="userSpaceOnUse" x="1" y="1" width="18" height="18">
<path d="M1 1H19V19H1V1Z" fill="white"/>
</mask>
<g mask="url(#mask0_100_647)">
<path d="M18.2972 10.001C18.2954 10.7409 18.287 11.4808 18.2769 12.2207C18.2647 13.1133 18.2509 14.0064 18.027 14.8837C17.7923 15.8038 17.3293 16.5972 16.6089 17.1847C15.8498 17.8037 14.9323 18.1291 13.942 18.1893C12.6286 18.2692 11.3146 18.3007 10.0006 18.2976C8.68663 18.3007 7.37263 18.2692 6.05922 18.1893C5.06894 18.1291 4.15143 17.8037 3.39234 17.1847C2.67199 16.5972 2.20898 15.8038 1.97421 14.8837C1.75033 14.0064 1.73655 13.1133 1.72435 12.2207C1.71423 11.4808 1.70582 10.7409 1.7041 10.001C1.70582 9.26108 1.71423 8.52115 1.72435 7.78129C1.73655 6.88864 1.75033 5.9956 1.97421 5.11824C2.20898 4.1982 2.67199 3.40472 3.39234 2.8173C4.15143 2.19826 5.06894 1.87289 6.05922 1.81267C7.37263 1.7328 8.68663 1.70123 10.0006 1.70432C11.3146 1.70123 12.6286 1.7328 13.942 1.81267C14.9323 1.87289 15.8498 2.19826 16.6089 2.8173C17.3293 3.40472 17.7923 4.1982 18.027 5.11824C18.2509 5.9956 18.2647 6.88864 18.2769 7.78129C18.287 8.52115 18.2954 9.26108 18.2972 10.001Z" stroke="black" stroke-width="1.84895" stroke-miterlimit="10"/>
<path d="M13.6565 10.001C13.6565 12.0397 12.0038 13.6924 9.96509 13.6924C7.92638 13.6924 6.27368 12.0397 6.27368 10.001C6.27368 7.96226 7.92638 6.30957 9.96509 6.30957C12.0038 6.30957 13.6565 7.96226 13.6565 10.001Z" stroke="black" stroke-width="1.84895" stroke-miterlimit="10"/>
<path d="M15.9065 5.25488C15.9065 5.83735 15.4343 6.30957 14.8518 6.30957C14.2693 6.30957 13.7971 5.83735 13.7971 5.25488C13.7971 4.67241 14.2693 4.20019 14.8518 4.20019C15.4343 4.20019 15.9065 4.67241 15.9065 5.25488Z" fill="black"/>
</g>
</svg>
