<svg width="20" height="20" viewBox="0 0 20 20" fill="none" xmlns="http://www.w3.org/2000/svg">
<g clip-path="url(#clip0_100_79)">
<path d="M14.7138 13.8808L11.178 17.4167C10.8655 17.7289 10.4418 17.9042 10.0001 17.9042C9.55836 17.9042 9.13469 17.7289 8.82218 17.4167L5.28551 13.8808C4.3532 12.9485 3.71829 11.7606 3.46108 10.4674C3.20388 9.17419 3.33592 7.83376 3.84051 6.61561C4.34511 5.39745 5.19959 4.35628 6.29591 3.62376C7.39223 2.89123 8.68115 2.50024 9.99968 2.50024C11.3182 2.50024 12.6071 2.89123 13.7034 3.62376C14.7998 4.35628 15.6542 5.39745 16.1588 6.61561C16.6634 7.83376 16.7955 9.17419 16.5383 10.4674C16.2811 11.7606 15.6462 12.9485 14.7138 13.8808Z" fill="black"/>
<path d="M7.5 9.16667C7.5 9.82971 7.76339 10.4656 8.23223 10.9344C8.70107 11.4033 9.33696 11.6667 10 11.6667C10.663 11.6667 11.2989 11.4033 11.7678 10.9344C12.2366 10.4656 12.5 9.82971 12.5 9.16667C12.5 8.50363 12.2366 7.86774 11.7678 7.3989C11.2989 6.93006 10.663 6.66667 10 6.66667C9.33696 6.66667 8.70107 6.93006 8.23223 7.3989C7.76339 7.86774 7.5 8.50363 7.5 9.16667Z" fill="#D4DFD6"/>
</g>
<defs>
<clipPath id="clip0_100_79">
<rect width="20" height="20" fill="white"/>
</clipPath>
</defs>
</svg>
