<svg width="53" height="42" viewBox="0 0 53 42" fill="none" xmlns="http://www.w3.org/2000/svg">
<path opacity="0.2" d="M49.55 0.179994V9.02H44.48C40.4933 9.02 38.5 11.0133 38.5 15V19.16H40.71C44.1767 19.16 47.0367 20.2 49.29 22.28C51.63 24.36 52.8 27.0033 52.8 30.21C52.8 33.6767 51.63 36.4933 49.29 38.66C47.0367 40.8267 44.1767 41.91 40.71 41.91C37.1567 41.91 34.2533 40.8267 32 38.66C29.7467 36.4067 28.62 33.4167 28.62 29.69V14.74C28.62 5.03333 33.4733 0.179994 43.18 0.179994H49.55ZM20.95 0.179994V9.02H15.88C11.8933 9.02 9.9 11.0133 9.9 15V19.16H12.11C15.5767 19.16 18.4367 20.2 20.69 22.28C23.03 24.36 24.2 27.0033 24.2 30.21C24.2 33.6767 23.03 36.4933 20.69 38.66C18.4367 40.8267 15.5767 41.91 12.11 41.91C8.55667 41.91 5.65333 40.8267 3.4 38.66C1.14667 36.4067 0.0200002 33.4167 0.0200002 29.69V14.74C0.0200002 5.03333 4.87333 0.179994 14.58 0.179994H20.95Z" fill="black"/>
</svg>
