<svg width="18" height="18" viewBox="0 0 18 18" fill="none" xmlns="http://www.w3.org/2000/svg">
<path d="M8.4085 0.401585C8.63163 0.00570881 9.20171 0.00570935 9.42484 0.401585L11.9332 4.8518C12.0164 4.99949 12.1598 5.10365 12.326 5.13719L17.3335 6.14755C17.7789 6.23743 17.9551 6.77961 17.6476 7.11415L14.1903 10.8749C14.0755 10.9997 14.0208 11.1683 14.0402 11.3367L14.6267 16.4113C14.6789 16.8628 14.2177 17.1978 13.8045 17.0087L9.15943 14.8828C9.00528 14.8122 8.82806 14.8122 8.67391 14.8828L4.02885 17.0087C3.61565 17.1978 3.15444 16.8627 3.20662 16.4113L3.79311 11.3367C3.81257 11.1683 3.75781 10.9997 3.64307 10.8749L0.185781 7.11415C-0.121768 6.77961 0.0543962 6.23743 0.499848 6.14755L5.50737 5.13719C5.67355 5.10365 5.81693 4.99949 5.90017 4.8518L8.4085 0.401585Z" fill="#FFC101"/>
</svg>
