<svg width="20" height="20" viewBox="0 0 20 20" fill="none" xmlns="http://www.w3.org/2000/svg">
<g clip-path="url(#clip0_100_85)">
<path d="M14.167 2.78333C15.4338 3.51474 16.4858 4.56673 17.2172 5.83357C17.9486 7.1004 18.3337 8.53745 18.3337 10.0003C18.3336 11.4631 17.9486 12.9001 17.2172 14.1669C16.4857 15.4338 15.4337 16.4858 14.1669 17.2171C12.9001 17.9485 11.463 18.3336 10.0002 18.3335C8.53738 18.3335 7.10034 17.9484 5.83352 17.217C4.5667 16.4856 3.51473 15.4336 2.78335 14.1667C2.05198 12.8999 1.66696 11.4628 1.66699 10L1.67116 9.73C1.71783 8.29082 2.13662 6.8883 2.88669 5.65916C3.63677 4.43002 4.69254 3.41621 5.95107 2.71657C7.2096 2.01693 8.62795 1.65533 10.0678 1.66703C11.5077 1.67873 12.92 2.06333 14.167 2.78333ZM9.16699 5.83333V10.0183L9.16949 10.0633L9.18616 10.1758L9.19033 10.1967C9.20185 10.2438 9.21746 10.2898 9.23699 10.3342L9.27033 10.4025L9.30366 10.4567L10.9737 12.9625C11.0344 13.0535 11.1125 13.1317 11.2034 13.1926C11.2944 13.2535 11.3964 13.2959 11.5038 13.3173C11.6111 13.3387 11.7216 13.3388 11.829 13.3175C11.9363 13.2963 12.0384 13.2541 12.1295 13.1933C12.2205 13.1326 12.2987 13.0545 12.3596 12.9636C12.4205 12.8726 12.4629 12.7706 12.4843 12.6632C12.5057 12.5559 12.5058 12.4454 12.4845 12.338C12.4633 12.2307 12.4211 12.1285 12.3603 12.0375L10.8337 9.7475V5.83333C10.8336 5.62922 10.7587 5.43222 10.6231 5.27969C10.4874 5.12716 10.3005 5.02971 10.0978 5.00583L10.0003 5C9.77931 5 9.56735 5.0878 9.41107 5.24408C9.25479 5.40036 9.16699 5.61232 9.16699 5.83333Z" fill="black"/>
</g>
<defs>
<clipPath id="clip0_100_85">
<rect width="20" height="20" fill="white"/>
</clipPath>
</defs>
</svg>
