<svg width="20" height="20" viewBox="0 0 20 20" fill="none" xmlns="http://www.w3.org/2000/svg">
<g clip-path="url(#clip0_100_662)">
<path d="M1.66675 6.66634C1.66675 5.78229 2.01794 4.93444 2.64306 4.30932C3.26818 3.6842 4.11603 3.33301 5.00008 3.33301H15.0001C15.8841 3.33301 16.732 3.6842 17.3571 4.30932C17.9822 4.93444 18.3334 5.78229 18.3334 6.66634V13.333C18.3334 14.2171 17.9822 15.0649 17.3571 15.69C16.732 16.3151 15.8841 16.6663 15.0001 16.6663H5.00008C4.11603 16.6663 3.26818 16.3151 2.64306 15.69C2.01794 15.0649 1.66675 14.2171 1.66675 13.333V6.66634Z" stroke="black" stroke-width="2" stroke-linecap="round" stroke-linejoin="round"/>
<path d="M8.33325 7.5L12.4999 10L8.33325 12.5V7.5Z" stroke="black" stroke-width="2" stroke-linecap="round" stroke-linejoin="round"/>
</g>
<defs>
<clipPath id="clip0_100_662">
<rect width="20" height="20" fill="white"/>
</clipPath>
</defs>
</svg>
